<?xml version="1.0" encoding="UTF-8"?><!DOCTYPE svg PUBLIC "-//W3C//DTD SVG 1.1//EN" "http://www.w3.org/Graphics/SVG/1.1/DTD/svg11.dtd"><svg xmlns="http://www.w3.org/2000/svg" xmlns:xlink="http://www.w3.org/1999/xlink"><symbol id="FB" viewBox="0 0 24 24"><path d="M12 0C5.373 0 0 5.395 0 12.05c0 5.969 4.326 10.912 9.999 11.87v-9.356H7.104v-3.367h2.895V8.715c0-2.88 1.752-4.45 4.31-4.45 1.226 0 2.28.092 2.585.132v3.01l-1.775.002c-1.391 0-1.66.664-1.66 1.638v2.149h3.32l-.432 3.366H13.46V24C19.397 23.274 24 18.205 24 12.046 24 5.395 18.627 0 12 0Z" fill-rule="nonzero"/></symbol><symbol id="IG" viewBox="0 0 24 24"><g fill-rule="nonzero"><path d="M14.297 12a2.297 2.297 0 1 1-4.594 0 2.297 2.297 0 0 1 4.594 0Z"/><path d="M17.372 7.936c-.11-.299-.287-.57-.516-.792a2.133 2.133 0 0 0-.792-.516c-.243-.094-.608-.206-1.28-.237-.726-.033-.944-.04-2.784-.04-1.84 0-2.058.007-2.784.04-.672.03-1.037.143-1.28.237-.3.11-.57.287-.792.516a2.136 2.136 0 0 0-.516.792c-.094.243-.206.608-.237 1.28-.033.726-.04.944-.04 2.784 0 1.84.007 2.058.04 2.785.03.671.143 1.036.237 1.279.11.3.287.57.516.792.222.23.493.405.792.516.243.094.608.206 1.28.237.726.033.944.04 2.784.04 1.84 0 2.058-.007 2.784-.04.672-.03 1.037-.143 1.28-.237a2.282 2.282 0 0 0 1.308-1.308c.094-.243.206-.608.237-1.28.033-.726.04-.944.04-2.784 0-1.84-.007-2.058-.04-2.784-.03-.672-.143-1.037-.237-1.28ZM12 15.538a3.538 3.538 0 1 1 0-7.076 3.538 3.538 0 0 1 0 7.076Zm3.678-6.39a.827.827 0 1 1 0-1.653.827.827 0 0 1 0 1.654Z"/><path d="M12 0C5.374 0 0 5.374 0 12s5.374 12 12 12 12-5.374 12-12S18.626 0 12 0Zm6.85 14.84c-.034.734-.15 1.235-.321 1.674a3.523 3.523 0 0 1-2.015 2.015c-.439.17-.94.287-1.673.32-.735.034-.97.042-2.84.042-1.872 0-2.107-.008-2.842-.042-.733-.033-1.234-.15-1.672-.32a3.376 3.376 0 0 1-1.22-.795 3.377 3.377 0 0 1-.796-1.22c-.17-.439-.287-.94-.32-1.673-.034-.735-.042-.97-.042-2.841 0-1.871.008-2.106.042-2.84.033-.734.15-1.235.32-1.674.173-.46.444-.876.795-1.22.344-.35.76-.622 1.22-.795.439-.17.94-.287 1.673-.32.735-.034.97-.042 2.841-.042 1.871 0 2.106.008 2.84.042.734.033 1.235.15 1.674.32.46.173.876.444 1.22.795.35.344.622.76.795 1.22.17.439.287.94.32 1.673.034.735.042.97.042 2.841 0 1.871-.008 2.106-.042 2.84Z"/></g></symbol><symbol id="TK" viewBox="0 0 24 24"><g fill-rule="evenodd"><circle cx="12" cy="12" r="12"/><path d="M10.42 12.474a1.875 1.875 0 1 0 1.874 1.875V5.6h2.234v.051c-.022.174-.022.35 0 .525a3.047 3.047 0 0 0 1.363 1.984 2.919 2.919 0 0 0 1.652.5v2.175a5.063 5.063 0 0 1-3.015-.96v4.48a4.064 4.064 0 1 1-4.109-4.083v2.202Z" fill="#FFF" fill-rule="nonzero"/></g></symbol><symbol id="TW" viewBox="0 0 24 24"><path d="M12 0C5.374 0 0 5.373 0 12c0 6.626 5.374 12 12 12s12-5.374 12-12c0-6.627-5.374-12-12-12Zm5.48 9.356c.004.118.007.237.007.356 0 3.64-2.77 7.836-7.837 7.837a7.796 7.796 0 0 1-4.222-1.238 5.527 5.527 0 0 0 4.078-1.14 2.757 2.757 0 0 1-2.573-1.914 2.741 2.741 0 0 0 1.244-.047 2.755 2.755 0 0 1-2.21-2.7v-.035c.372.206.796.33 1.248.345a2.752 2.752 0 0 1-.852-3.678 7.82 7.82 0 0 0 5.677 2.878 2.755 2.755 0 0 1 4.694-2.512 5.524 5.524 0 0 0 1.748-.668 2.765 2.765 0 0 1-1.21 1.523 5.493 5.493 0 0 0 1.58-.433 5.597 5.597 0 0 1-1.373 1.426Z" fill-rule="nonzero"/></symbol><symbol id="YT" viewBox="0 0 24 24"><g fill-rule="nonzero"><path d="M10.505 14.248 14.41 12 10.505 9.75z"/><path d="M12 0C5.374 0 0 5.373 0 12c0 6.626 5.374 12 12 12s12-5.374 12-12c0-6.627-5.374-12-12-12Zm7.498 12.012s0 2.434-.309 3.607a1.879 1.879 0 0 1-1.321 1.322c-1.174.309-5.868.309-5.868.309s-4.682 0-5.868-.322a1.88 1.88 0 0 1-1.321-1.321C4.5 14.446 4.5 12 4.5 12s0-2.434.31-3.607a1.917 1.917 0 0 1 1.321-1.334c1.174-.31 5.868-.31 5.868-.31s4.694 0 5.868.322a1.88 1.88 0 0 1 1.321 1.322c.322 1.173.31 3.619.31 3.619Z"/></g></symbol><symbol id="arrow-forward.1" viewBox="0 0 16 14"><path d="M1 7h14m0 0L9 1m6 6-6 6" stroke-width="2" fill-rule="evenodd" stroke-linecap="round" stroke-linejoin="round"/></symbol><symbol id="arrow-forward.2" viewBox="0 0 24 24"><path d="m5 3 3.057-3L20 12 8.057 24 5 21l9-9z"/></symbol><symbol id="button-hamburger" viewBox="0 0 14 13"><g stroke="#EB0000" stroke-width="1.5" fill="none" fill-rule="evenodd" stroke-linecap="round" stroke-linejoin="round"><path d="M13 11.5H1M1 6.5h12M5.5 1.5H1"/></g></symbol><symbol id="divider" viewBox="0 0 1 5"><path d="M0 0h1v2H0zM0 3h1v2H0z"/></symbol><symbol id="document" viewBox="0 0 12 16"><path d="m9.095 15.226 2.1-2.057h-2.1z"/><path d="M8.427 16v-3.148a.32.32 0 0 1 .326-.316H12V0H0v16h8.427ZM1.553 2.07h8.897a.32.32 0 0 1 .326.317.32.32 0 0 1-.326.317H1.553a.32.32 0 0 1-.325-.317c-.014-.176.14-.317.325-.317Zm0 2.514h8.897a.32.32 0 0 1 .326.317.32.32 0 0 1-.326.317H1.553a.32.32 0 0 1-.325-.317c-.014-.163.14-.317.325-.317Zm0 2.528h8.897a.32.32 0 0 1 .326.317.32.32 0 0 1-.326.316H1.553a.32.32 0 0 1-.325-.316c0-.177.14-.317.325-.317Zm-.339 2.844a.32.32 0 0 1 .326-.317h8.897a.32.32 0 0 1 .325.317.32.32 0 0 1-.325.317H1.553c-.184 0-.339-.14-.339-.317Z"/></symbol><symbol id="gallery" viewBox="0 0 16 16"><path d="M0 0v16h16V0H0Zm5.098 3.752a1.628 1.628 0 1 1 0 3.256 1.628 1.628 0 0 1 0-3.256Zm9.103 8.327a.321.321 0 0 1-.283.169H2.082a.321.321 0 0 1-.268-.497l2.07-3.155a.802.802 0 0 1 1.273-.09l1.428 1.618 2.587-3.937a.803.803 0 0 1 1.341-.002l3.673 5.565a.32.32 0 0 1 .015.329Z" fill="#EB0000" fill-rule="nonzero"/></symbol><symbol id="live" viewBox="0 0 16 12"><path d="M3.474.239a.825.825 0 0 1 0 1.152c-2.5 2.545-2.5 6.673 0 9.218a.825.825 0 0 1 0 1.152.79.79 0 0 1-1.13 0C-.782 8.58-.782 3.421 2.343.24a.79.79 0 0 1 1.13 0Zm10.183 0c3.124 3.182 3.124 8.34 0 11.522a.79.79 0 0 1-1.131 0 .825.825 0 0 1 0-1.152c2.5-2.545 2.5-6.673 0-9.218a.825.825 0 0 1 0-1.152.79.79 0 0 1 1.13 0Zm-7.81 2.34a.825.825 0 0 1 0 1.152 3.235 3.235 0 0 0 0 4.516.825.825 0 0 1 0 1.152.79.79 0 0 1-1.131 0c-1.85-1.883-1.85-4.937 0-6.82a.79.79 0 0 1 1.13 0Zm5.565 0c1.85 1.883 1.85 4.937 0 6.82a.79.79 0 0 1-1.13 0 .825.825 0 0 1 0-1.152 3.235 3.235 0 0 0 0-4.516.825.825 0 0 1 0-1.152.79.79 0 0 1 1.13 0ZM8.064 4.835c.663 0 1.2.547 1.2 1.222a1.21 1.21 0 0 1-1.2 1.222 1.21 1.21 0 0 1-1.2-1.222 1.21 1.21 0 0 1 1.2-1.222Z" fill="#EB0000" fill-rule="nonzero"/></symbol><symbol id="location" viewBox="0 0 13 16"><path d="M6.966 15.81C8.456 14.388 13 9.796 13 6.701 13 3.001 10.09 0 6.5 0S0 3 0 6.701c0 3.095 4.544 7.687 6.034 9.109a.667.667 0 0 0 .932 0ZM6.5 9.6c1.595 0 2.889-1.323 2.889-2.954 0-1.631-1.294-2.954-2.889-2.954-1.595 0-2.889 1.323-2.889 2.954C3.611 8.277 4.905 9.6 6.5 9.6Z" fill="#272727" fill-rule="evenodd"/></symbol><symbol id="logo" viewBox="0 0 93 120"><g fill="none" fill-rule="evenodd"><path d="m91.69 23.59-8.21-7.396a3.501 3.501 0 0 1-1.133-2.973l.273-2.525c.013-.244.066-1.395.13-2.837l.009-.15c.054-1.211.12-2.694.159-3.388a3.43 3.43 0 0 1 .033-.565l.016-.118a.556.556 0 0 0 .008-.051l.006-.05a3.16 3.16 0 0 0-.745-2.46A3.143 3.143 0 0 0 79.882 0h-.074c-1.933.03-3.92.06-5.896.153-1.088.073-11.805 1.022-12.642 1.119-.409.046-1.86.26-3.03.43-1.386.202-1.823.264-2.035.293l-.045.004c-.091.012-.17.023-.246.038l-.097.018-.25.041-.095.015a56.11 56.11 0 0 0-1.703.267l-.111.018c-.286.048-.567.095-.849.14-.261.041-1.292.212-1.526.254-.531.093-1.058.195-1.565.292l-.44.083c-.376.073-.733.14-1.086.202a66.14 66.14 0 0 0-1.618.306l-.06.012-.023.005c-.92.19-1.945.402-2.934.612-.848.18-6.085 1.315-6.888 1.512l-2.275.548c-.272.065-.899.226-1.824.465-1.582.41-2.836.735-3.407.861l-.206.053-.05.014-.138.038c-.017.007-.035.01-.052.015a131.7 131.7 0 0 0-3.176.872l-1.481.427-1.577.454-.347.099c-.466.133-.989.28-1.508.447l-.059.02-.154.046-.057.017a40.02 40.02 0 0 0-.557.164l-.066.019c-.185.057-.36.108-.512.15-.55.146-2.44.775-3.822 1.236-1.28.426-2.09.695-2.553.838-.066.02-.131.043-.197.067l-.066.025-.174.062-.066.021c-.847.285-1.969.668-3.132 1.1a3.152 3.152 0 0 0-2.03 2.68c-.139 1.626-.217 3.36-.256 5.622v.037c-.032 1.805-.059 3.51-.202 5.257-.006.06-.01.128-.01.192l-.036 1.746a3.493 3.493 0 0 1-.904 2.278l-4.96 5.47A3.147 3.147 0 0 0 0 39.268v1.492c0 .14.01.28.027.42l.213 1.583c.013.09.028.178.048.267l.54 2.44.017.089.61 3.141c.012.062.027.124.041.188l1.153 4.496.005.027L4.042 59c.01.05.027.107.044.162l1.175 3.905 1.655 5.016a3.49 3.49 0 0 1-.176 2.621L4.143 76.06a3.151 3.151 0 0 0-.195 2.237l.125.433c.029.104.067.212.108.314l.727 1.796c.03.075.066.152.102.226l.85 1.704c.017.03.033.065.052.098l1.275 2.344c.027.048.052.093.078.136l1.817 2.98a.318.318 0 0 1 .027.04l2.345 3.968 1.56 2.53.095.143 1.708 2.447c.03.04.062.085.094.126l1.803 2.32 1.83 2.303c.023.03.05.06.072.088l1.882 2.198 1.681 1.897.091.1 3.4 3.53c.038.039.08.08.124.121l2.978 2.773c.05.044.102.09.156.135l2.438 1.995c.023.017.046.036.07.056l4.808 4.14c.57.491 1.297.762 2.046.762.48 0 .96-.113 1.39-.326.15-.076 3.744-1.881 10.229-6.815.026-.017.049-.037.076-.055l.158-.114 4.569-3.489 1.725-1.515 1.981-1.775a3.44 3.44 0 0 0 .175-.169l2.028-2.125c.008-.007.014-.015.022-.021l2.274-2.342c.05-.051.102-.107.144-.16l2.341-2.77c.039-.047.072-.09.105-.132l2.337-3.075.091-.126 2.411-3.507 2.586-3.721c.06-.083.115-.172.164-.26l2.314-4.128 2.477-4.56c.026-.048.049-.093.07-.137l1.184-2.47c.015-.031.03-.06.043-.094l1.088-2.489 1.585-3.852a2.63 2.63 0 0 0 .046-.12l1.429-3.893 1.354-3.926c.018-.048.028-.084.04-.123l1.174-3.895 1.174-4.021c.012-.038.02-.073.028-.107l.994-3.924 1.693-7.215.025-.113 1.262-6.338.96-5.114c.009-.046.017-.09.023-.136l.636-4.477a3.135 3.135 0 0 0-1.005-2.781" fill="#FFF"/><path d="M59.081 88.659C44.98 70.192 40.616 41.582 38.465 22.063v-.004c-.108.028-.213.051-.32.078-10.092 2.393-19.671 5.537-28.36 9.516 3.799 41.941 15.252 67.407 30.562 81.544a118.636 118.636 0 0 0 19.397-23.645c.004-.008.012-.016.016-.023a60.033 60.033 0 0 1-.679-.87" fill="#273766"/><path d="M59.76 89.529a54.877 54.877 0 0 1-.678-.87C44.978 70.192 40.617 41.582 38.465 22.063c23.204-5.355 41.19-5.962 41.19-5.962 1.45 40.453-17.512 69.897-19.895 73.428" fill="#D8232A"/><path d="M70.42 34.63c.396.244.519.583.67.766.062.092.154.155.246.155l.397-.766-.643-.613-.67.459ZM49.147 40.76c-.184-.03-.399-.061-.611-.124-.46-.12-.918-.244-1.347-.306-.09 0-.213 0-.304-.03h-.245c-.06 0-.123 0-.183.03-.275 0-.52.093-.735.214-.242.828 0 1.503.093 2.3l.458.398h.184c.06.03.122.03.183.03l.245.031c.091 0 .214.03.304.03.246.032.46.093.612.154l.735-.336.09-.032c0-.306-.03-.643-.09-.95a4.575 4.575 0 0 1-.06-.582l.06-.092.611-.736Zm-2.201 1.072-.06-.092-.215-.368a.278.278 0 0 1 .214-.09c.244.03.458.428.06.55ZM73.874 35.55c-.521-.276-1.193 0-1.59 0l-.152.736c.457.95 1.68 1.317 2.32 2.022.125.153.246.338.34.552.61-.124.792.398 1.19.52.551.093.766-.52.766-.765-.705-.674-1.592-1.563-2.295-2.391a72.144 72.144 0 0 1-.58-.674" fill="#FFF"/><path d="M65.743 25.008c1.007-.307 2.048-.674 3.056-.95a8.473 8.473 0 0 1 2.293-.338c.795 0 1.59.184 2.353.643l.673.767c.428.612.275 1.411.275 1.931-.916 1.534-2.048 2.911-3.301 4.137-.734.675-1.498 1.349-2.293 1.931a29.66 29.66 0 0 1-3.056 2.024c-1.712 1.01-3.514 1.838-5.288 2.573-.274.06-.52.154-.795.215-2.324.613-4.493 1.347-6.724 1.898-.243.063-.489.094-.732.155l-.276.246-.153.153-.368-.737a1.085 1.085 0 0 0-.275-.123c-.274-.121-.58-.06-.795-.06l-.396.245a4.539 4.539 0 0 1-.703-.154c-.243-.031-.458-.092-.703-.152-.458-.124-.887-.276-1.344-.368-.092-.031-.215-.062-.306-.092-.092-.03-.154-.03-.246-.062-.06 0-.121-.03-.183-.03-.275-.062-.55-.091-.824-.123l-.153.368c.213.367.61.275.977.275h.183c.092.032.185.063.246.092.06.061.122.155.184.246l.122.03c.426.062.917 0 1.344-.03.274 0 .489.03.703.121.06.063.12.094.184.155l.366.765H51.407v1.165c-.12.063-.214.123-.275.214-.181.277-.092.643 0 .981.336-.091.583-.091.796-.091.182 0 .336 0 .52-.06l.274-.4c-.12-.736-.397-.98-.397-1.533l.397-.367h.397c.611.091.764.521 1.162.642 1.956-.336 3.698-1.01 5.38-1.746 2.079-.95 4.034-2.085 6.082-2.88.121-.06.213-.093.335-.154.55-.46.796-.643 1.224-.918.49-.338.979-.674 1.497-1.012.765-.522 1.559-1.041 2.293-1.595 1.313-.98 2.507-2.052 3.361-3.493.307-.55.55-1.132.766-1.777v-1.993a4.588 4.588 0 0 0-.766-1.379l-.06-.091-.794-.798a10.683 10.683 0 0 0-2.507-.58 11.33 11.33 0 0 0-2.293-.031 16.334 16.334 0 0 0-3.056.581 17.01 17.01 0 0 0-2.813 1.165l-.121.797c.947.06 1.955-.123 2.934-.398M59.66 60.25c-.518-.307-.977-.674-1.528-1.073-.55-.06-.796-.06-1.191-.06l-.123.337.764.49c.397.275.397 1.074.674 1.164v.368c.274.552.274 1.011.55 1.196.274-.185.58-.338.855-.521.518-.307.947-.613 1.284-1.043l-.123-.338a7.967 7.967 0 0 1-1.161-.52M51.133 57.707v-.06l-.397-.278-.122.277c.213.244.365.49.519.735.368.614.611 1.256.793 1.993v-.032l.277-.398a8.088 8.088 0 0 0-.277-.704c-.244-.584-.579-.982-.793-1.533" fill="#FFF"/><path d="m45.815 38.001.306.184c.091.031.215.063.336.093.06.03.122.03.182.03.092.03.154.03.246.06.091 0 .215.031.306.063.458.06.917.123 1.344.275.121.031.245.093.367.153h1.04c.672-1.93.977-4.29 1.191-6.467.06-.396.122-.826.153-1.225l-.153-.031c-.58-.182-1.253-.306-1.894-.397-.244-.03-.459-.062-.704-.093-.458-.03-.886-.092-1.344-.122l-.306-.03h-.246l-.182-.032c-.367-.029-.734-.06-1.101-.06l-.55.644c1.192 2.175 1.01 4.78 1.01 6.955Zm2.414-5.148.306.153.49.215c.091.306-.123.613-.49.704-.092.032-.183.032-.306.032-.275-.062-.275-.889 0-1.104ZM47.16 31.69l.03.03.275.246-.122.734-.152.185-.245.337c0-.368 0-.98.214-1.532Zm-.275 2.236.183-.03c-.122.888.275 1.992 0 3.035l-.122.153c-.032-.092-.06-.153-.06-.246-.184-.92.028-1.778-.093-2.88l.092-.032ZM51.286 37.358c-.154.183-.154.37-.154.522v.06c0 .115 0 .212-.05.305a.548.548 0 0 0 .05-.121c.154-.307.154-.613.154-.766M75.675 39.718l-.335-.338h-.396a2.401 2.401 0 0 1-.49-.245c-1.009-.581-1.803-1.44-2.72-1.777a14.747 14.747 0 0 0-.644-1.012c-.304-.428-.61-.827-.946-1.194-.488.123-.794 0-1.13.123l-.215.184c-1.039.826-2.048 1.531-3.056 2.114-.093.062-.183.091-.307.154-1.649 1.44-3.79 1.99-5.776 2.696-.428.153-.886.336-1.283.49-.398.276-.398.735-.52 1.134-.274 1.072-.52 2.175-.367 3.065l-.428.275-.397-.399c.153-1.408.672-2.297.672-3.4-.52 0-1.191.06-1.62.244l-.643.736-.243.735c.397 1.533.672 2.819 0 4.26h-.429c-.244-.644 0-1.074 0-1.563-.489.061-.976.122-1.465.215-.336.06-.673.123-1.01.184l-.795.152c-.611.123-1.252.245-1.894.307-.244.031-.457.061-.703.092-.427.031-.886.06-1.345.06-.091 0-.214 0-.305-.029h-.246c-.06 0-.12 0-.183-.031-.12 0-.244 0-.335-.031-.641.46-1.039.86-1.438 1.655.797 3.83 1.59 8.06 1.59 11.92l.183.215.183.186.154.123h.397c.49-.033.918-.123 1.345-.215.246-.033.46-.094.703-.123.49-.092.978-.186 1.496-.186l.154-.274c-.274-.644-.672-.92-.672-1.564v-.367c-.184-.428-.611-.643-.978-.889a1.6 1.6 0 0 1-.49-.397 2.2 2.2 0 0 0-.213-.553c-.213-.49-.427-.766-.306-1.379l-.55-1.102v-1.166l.398-.276.397.276.06.063c.398.336.49.949.612 1.47l.092.061c.764.614 1.376 1.472 1.894 2.33.275.398.52.796.795 1.194.674.399.795 1.196.95 1.81.028.152.028.304.06.459v.705c-.032.459-.06.95 0 1.348.029.336.122.643.335.888l.336.276 1.62-.46c.918 0 1.59-.184 2.355-.184l.121-.276c-.367-.46-.642-1.01-1.161-2.114-.275-.797-1.469-.522-1.712-1.195-.55-1.317-1.376-2.666-1.894-4.013-.246-.584-.43-1.167-.49-1.748l.49-.522.182-.215c.49.123.764 0 1.162.123l-.123.736c.244.52.916.43 1.07.643 1.315.154 2.355.89 3.577.89.275.153.55.306.855.429 1.253.55 2.72.889 3.759 1.409.58-.183.795 0 1.254-.183.459-.583.734-1.533 1.07-2.178l.06-.091.825-.643.397.244c.124.737-.672.92-.55 1.565.827.06 1.59.09 2.324.06.55 0 1.069-.03 1.62-.06.306-.246.49-.492.671-.706.215-.275.368-.52.643-.582 1.07-1.256 1.223-3.188 1.987-4.659.123-1.225.429-2.42.733-3.616.55-2.084 1.161-4.167 1.222-6.343Zm-29.28 10.787.061-.091.183-.186h.031l-.031.032c-.12.552.123 1.164-.152 1.777l-.03-.123c-.122-.428-.336-1.011-.061-1.409Zm.275 3.034-.031-.062-.152-.674c.063 0 .123-.031.152 0 .337.031.031.551.031.736Zm5.38 3.464c-.031-.155-.092-.276-.123-.4-.183-.583-.46-1.041-.795-1.502-.214-.368-.458-.704-.672-1.132 0-.43-.123-.89.274-1.166l.275.063c0 .581 0 1.072.123 1.623.06.244.154.49.275.766l.368.369c0 .181.06.366.152.55.092.153.184.338.276.553l-.153.276Zm10.208-9.348c-.885.124-1.773.275-2.598.46-2.261.459-4.462 1.072-6.723 1.623-.336.093-.673.185-1.01.246-.245.06-.52.154-.795.215-.611.153-1.252.275-1.894.428-.244.03-.457.093-.703.123h-.06l-.521.49-.275-.735c.305-.091.58-.153.856-.245.246-.061.46-.122.703-.184.61-.184 1.255-.338 1.894-.552l.795-.214 1.01-.275c2.2-.614 4.492-1.196 6.723-1.503.948-.123 1.895-.215 2.874-.215l-.276.338Zm.276-3.8c-.397.092-.52.49-1.16.614-.553.367-1.193.918-1.593 1.653a.403.403 0 0 1-.12.093c-.275.305-.552.735-1.01.887v-.336l.277-.766c.214-.369.458-.705.732-1.012.397-.459.858-.796 1.56-1.041.274-.091.153-.705.642-.98l.825.152.122.367-.275.37ZM66.751 27.46l-.672-.798c-.123-.03-.214-.06-.335-.091-.735-.215-1.345-.245-2.048-.032v.766c.824.399 1.465 1.013 2.048 1.686.579.674 1.1 1.41 1.558 2.056l.367-.126c.397-.52-.275-1.132-.152-1.531-.369-.643-.766-1.257-.766-1.93M59.66 26.264c-2.29-.55-4.615-.889-6.723-.338-.125.031-.246.063-.336.094 0 .488.15.98.336 1.44.09.244.214.52.335.734.337.277.887.797 1.009 1.041l.122.43v.368c-.122.736-.52 1.013-.52 1.563l-.274.185-.337.183c.337.46.734 1.011 1.009 1.532v.4c-.643.06-.856-.704-1.344-.89-.06-.031-.154-.031-.214-.031-.122 1.717-.643 3.371-.797 4.934a8.225 8.225 0 0 0 0 1.196h.276c0-.49.246-1.012.4-1.103.12-.03.242-.093.335-.122.397-.185.518-.43.793-.521.429-.551.826-.92.826-1.532-.153-.553 0-1.196-.153-1.594l.428-.062c-.55-.46-.428-1.317-.825-1.593l.275-.338c.794.338.673 1.256 1.222 1.256.368.46.642 1.135.887 1.503.276 1.164-.121 2.084-.121 3.094l.397.092c.67-.092.824-.459 1.19-.643.674-1.38.123-2.543.276-3.831l.796.184c.275 1.104-.552 2.39 0 3.464.244-.094.49-.215.733-.307 2.139-.89 4.156-1.9 6.083-2.911.579-.306 1.19-.613 1.773-.92l.274-.367c-.672-.89-1.346-1.778-2.047-2.576-.522-.613-1.072-1.194-1.653-1.685l-.09-.399c-.917-.336-1.315-.734-1.988-1.256a70.804 70.804 0 0 0-2.352-.674" fill="#FFF"/><path d="m51.408 30.402.518.52.125.124c.274-.062.58 0 .886-.031.275-.03.519-.154.611-.613v-1.164a1.637 1.637 0 0 0-.611-.307 5.799 5.799 0 0 0-1.01-.092l-.366.399c-.153.55-.153.795-.153 1.164M51.682 26.264c-.06.398.123.645.244.92.093.184.185.399.125.674l.152-.275c-.277-.522-.03-.768-.277-1.166v-.03l-.244-.123ZM51.01 27.06c-.672.155-.794.523-1.222.675h-.764l-.398-.43h-.09c-.49-.09-.764-.09-1.07-.09a.863.863 0 0 0-.275.06c-.123.03-.215.093-.307.155-.09.03-.153.09-.244.153a.766.766 0 0 1-.184.152c-.152.154-.304.338-.458.46l.458.337.184.123.153.092h.091c.092.029.215.029.307.029.518 0 .886-.121 1.344 0 .091.032.153.063.212.063h.492c.702 0 1.436.152 1.893-.153.06-.031.123-.062.154-.092l.121-.736-.275-.522-.122-.275ZM49.024 26.938c.06-.031.123-.031.215-.031.335-.03.732.093.824-.244-.643-1.655.275-3.464 0-4.965l-.367-.154a5.107 5.107 0 0 0-.457.766c-.183.277-.337.553-.49.768-.093.184-.153.367-.214.52-.276.858-.276 1.716 0 2.452.121.337.275.613.49.888M46.487 26.663l.152-.032.245-.09.307-.093.611-.183c-.122-1.38 0-3.065-.46-4.17h-.397l-.06.063c-.092.123-.154.214-.246.336-.06.093-.12.184-.183.276-.215.37-.397.736-.458 1.226-.154.858.214 1.839.458 2.544l.031.123ZM46.457 29.758c.06.031.122.031.183.031.092.031.154.031.246.031.09.03.214.03.303.03.46.06.95.06 1.347.152.092 0 .154.031.212.031H50.34l-.123-.244c-.337-.063-.672-.092-.977-.123-.245-.03-.46-.03-.703-.06l-1.347-.092c-.09-.032-.213-.032-.303-.063-.092 0-.154 0-.246-.03-.06 0-.123-.03-.183-.03a5.876 5.876 0 0 1-.978-.278l.152.277c.245.184.52.307.826.368M68.799 32.27c.368-.243.856-.521.856-.949l-.367-.275c-.183 0-.335 0-.49.029-.366.062-.671.215-.732.522l-.121.367.244.338h.55l.06-.031ZM62.686 26.387l.243-.184c-.243-.797-1.19-1.318-1.556-1.746-.551-.186-1.07-.186-1.193-.645-.154-.03-.335-.06-.52-.09-.825-.186-1.71-.307-2.597-.093l-.397.366-.278.737c1.133.153 2.233.367 3.272.674 1.04.275 2.048.613 3.026.98M51.133 25.743v-.032c.243-.152.518-.275.793-.396a8.133 8.133 0 0 1 1.01-.246c.703-.153 1.435-.184 2.138-.184l.43-.797c-.825-.152-1.743-.399-2.567-.49a3.89 3.89 0 0 0-1.01-.032c-.276.063-.55.123-.794.247-.52.459-.397 1.317-.795 1.594l.123.336h.672Z" fill="#FFF"/><path d="M41.777 103.722c7.594.032 13.791-6.184 13.791-13.89 0-7.676-6.197-14.013-13.791-14.042-7.596-.06-13.793 6.183-13.793 13.86 0 7.706 6.197 14.012 13.793 14.072" fill="#273766"/><path d="M47.853 101.712a13.468 13.468 0 0 0 6.533-7.766c-1.065.79-2.128 1.46-3.22 1.887-.67 1.827-1.885 3.503-3.465 5.025.06.273.091.579.152.854M54.84 91.994c.121-.7.181-1.431.181-2.162 0-.732-.06-1.462-.18-2.162a9.222 9.222 0 0 1-.58.366c.398 1.31.548 2.65.58 3.958M54.78 87.212c-.67-3.35-2.583-6.275-5.225-8.254-.366.121-.73.213-1.094.335-.123.883-.243 1.735-.365 2.62a35.07 35.07 0 0 1 3.25 4.904c.851.303 1.733.639 2.581.944.273-.181.58-.367.852-.549M49.128 78.653a12.833 12.833 0 0 0-6.137-2.254v.854c1.915.06 3.677.638 5.318 1.735.273-.121.546-.243.82-.335M42.627 76.368c-.304-.031-.577-.031-.85-.031-3.31-.03-6.35 1.189-8.689 3.23.578.092 1.124.184 1.67.306 2.25-1.007 3.281-1.068 5.47-1.007.79-.517 1.58-1.035 2.4-1.553v-.945ZM28.835 86.756c-.213.915-.305 1.888-.305 2.894 0 1.432.213 2.833.64 4.111.03 0 .06 0 .12-.029-.455-2.163-.455-4.295.274-6.46-.243-.182-.486-.364-.73-.516M33.817 100.402a12.85 12.85 0 0 0 6.198 2.62c-.03-.214-.06-.458-.12-.671-2.19-.243-4.256-.822-6.017-2.07-.03.06-.06.09-.06.121M47.61 82.217c1.306 1.492 2.37 3.108 3.34 4.782a14.579 14.579 0 0 1-1.52 4.203c-1.852.124-3.704.274-5.557.397a340.013 340.013 0 0 0-2.765-4.478c.669-1.614 1.307-3.23 1.944-4.812 1.58-.458 3.13-.58 4.557-.092" fill="#FFF"/><path d="M40.227 79.293c.79.915 1.58 1.797 2.37 2.71a232.284 232.284 0 0 0-1.944 4.875c-1.55.516-3.1 1.065-4.618 1.613-1.062-1.126-2.096-2.255-3.128-3.38.09-1.463.515-3.016 1.7-4.814 1.67-.668 3.494-1.097 5.62-1.004M49.371 91.812c.488 1.036 1.064 2.194 1.52 3.229-.667 2.041-1.974 3.839-3.554 5.545-1.52-.092-3.07-.213-4.589-.305a171.228 171.228 0 0 0-1.58-4.356c.943-1.28 1.885-2.53 2.827-3.808 1.822-.063 3.554-.245 5.376-.305M35.61 88.765c-1.064-1.127-2.097-2.284-3.16-3.41-2.886 1.31-3.524 3.778-2.825 7.888.457 1.22 1.246 2.194 2.643 2.802 1.155-.822 2.31-1.643 3.462-2.466-.029-1.585-.089-3.2-.12-4.814M40.592 95.864c-1.61-.581-3.098-1.127-4.678-1.675-1.095.699-2.157 1.432-3.22 2.13.424 3.382 2.976 5.117 7.32 5.698.7-.61 1.397-1.129 2.097-1.737-.456-1.493-1.063-2.953-1.52-4.416M38.739 74.906c-5.195-13.158-8.87-27.535-10.907-47.944 2.796-1.006 4.861-1.767 8.415-2.498 2.279 22.328 6.563 38.015 12.608 51.66a7.148 7.148 0 0 0-.85-.395c-1.185-.487-2.31-.79-3.586-1.036a27.447 27.447 0 0 0-2.308-.182c-1.154.029-2.248.153-3.372.395M56.663 89.984c.273.395.546.793.82 1.158-.516.76-.941 1.493-1.458 2.253.273-.822.365-1.645.517-2.527.06-.274.09-.578.12-.884M46.728 105.124c-1.974 2.132-3.858 3.776-5.984 5.757-3.373-3.138-6.014-5.85-8.933-10.084.76.703 1.551 1.31 2.462 1.89.638.365 1.276.7 1.945 1.005 1.213.487 2.339.79 3.614 1.035.76.091 1.518.154 2.279.154a19.85 19.85 0 0 0 3.798-.458c.06-.03.15-.062.213-.062.425.428.181.336.606.763M27.59 93.945c-8.051-14.653-13.762-33.477-16.314-61.47 2.612-1.34 5.56-2.102 8.263-2.923 2.035 21.687 5.741 36.795 11.24 50.136-.577.671-1.095 1.371-1.61 2.164a23.491 23.491 0 0 0-1.002 1.948c-.457 1.189-.79 2.317-1.003 3.595-.12.792-.183 1.523-.183 2.316.03 1.31.183 2.495.488 3.777.029.15.06.302.12.457" fill="#FFF"/><path fill="#273766" d="m6.962 77.435 2.126-4.387.76 1.92.94 2.346 1.279 2.984 1.7 3.533 2.035 3.93 2.43 4.263 1.397 2.255 1.368 2.132 2.249 3.198 2.339 3.108 2.46 2.984 2.339 2.773L34 112.738l1.488 1.706-2.126-1.827-2.462-2.01-2.976-2.772-3.403-3.534-1.7-1.92-1.824-2.13-1.793-2.256-1.822-2.345-1.701-2.437-1.58-2.558-2.339-3.961-1.823-2.985-1.277-2.345-.85-1.705-.73-1.798zM3.134 39.268l4.254-4.69.333 3.502.518 3.96.637 4.995.972 5.666 1.154 6.182.638 3.108.76 3.046.729 3.107.85 2.985.76 2.224.85 2.255 1.701 4.385 1.915 4.143 1.701 3.747 1.701 3.077 1.276 2.466 1.276 2.134-.638-.763-1.488-2.224-2.127-3.412-2.764-4.597-1.398-2.652-1.49-2.893-1.58-3.107-1.395-3.199-1.489-3.41-1.368-3.625-1.183-3.595-1.156-3.838-1.396-5.636L4.53 48.1l-.638-3.29-.547-2.467-.212-1.584v-.852zM48.248 110.18l1.185-.976 1.275-1.156 1.701-1.706 2.007-2.254 2.337-2.772 2.554-3.321 2.733-3.715 2.764-4.387 1.488-2.435 1.4-2.468 1.487-2.652 1.397-2.893 1.368-2.862 1.398-3.11 1.274-3.316 1.276-3.293 1.154-3.502 1.186-3.715 1.064-3.839 1.063-3.96.85-4.173.85-4.265.639-4.143.517-3.958.425-3.717.335-3.41.425-5.027.09-1.829 5.104 4.6-.637 4.477-.943 5.027-1.276 6.397-1.701 7.25-.972 3.838-1.155 3.96-1.184 3.928-1.367 3.961-1.399 3.807-1.578 3.839-1.063 2.436-1.186 2.467-2.43 4.478-2.34 4.171-2.582 3.718-2.429 3.533-2.34 3.076-2.338 2.774-2.31 2.374-2.036 2.134-2.004 1.795-1.702 1.494-1.488 1.28-2.127 1.613z"/><g fill="#273766"><path d="M17.078 20.11c.151-.276.244-.58.334-.915.092-.488.12-1.006.031-1.585-.06-.517-.183-.913-.365-1.249a1.884 1.884 0 0 0-.79-.821c-.577-.305-1.428-.276-2.522.06-.06.03-.152.062-.242.09-1.094.367-2.157.733-3.22 1.128-.152 1.799-.213 3.594-.244 5.421-.03 1.8-.06 3.626-.213 5.484.972-.457 1.975-.913 2.979-1.401.06-.548.09-1.096.12-1.644.03-.549.061-1.097.061-1.647.273-.09.517-.182.76-.303l.425-.153c1.186-.457 2.065-1.126 2.613-2.01a1.85 1.85 0 0 0 .273-.456m-2.824-.489a2.226 2.226 0 0 1-.488.366c-.12.092-.273.152-.456.214-.09.03-.237-.006-.242.09.031-.61.06-1.188.06-1.797.061 0 .092-.029.152-.06.184-.06.365-.092.486-.123a.763.763 0 0 1 .365 0c.183.062.304.215.334.457.031.306-.03.611-.211.853M23.336 12.585c-.638.182-1.307.364-1.945.58-.454.12-.91.273-1.367.394a76.454 76.454 0 0 0-1.67 5.514 142.769 142.769 0 0 1-1.276 4.326c-.122.425-.273.882-.395 1.309l.395-.153c.94-.366 1.885-.7 2.825-1.066l.365-1.46c.364-.125.76-.246 1.123-.367.305-.092.578-.183.882-.304.061.425.092.852.121 1.249 1.003-.305 1.976-.641 2.977-.976-.273-1.522-.638-3.015-1.032-4.508-.364-1.522-.73-3.016-1.003-4.538m-1.945 6.762-.546.152c.122-.579.243-1.158.396-1.736.03-.214.06-.457.121-.7 0-.093.03-.154.03-.246l.091-.547v.244c.032.122.032.243.06.395.032.274.092.61.153 1.037.029.09.029.153.06.213.06.335.092.67.153 1.005-.153.06-.334.122-.518.183M74.01 3.295a79.427 79.427 0 0 0-.426 4.63 81.471 81.471 0 0 1-.394 4.6c2.035-.123 4.07-.245 6.076-.335.061-.428.12-.855.182-1.25.03-.426.091-.823.121-1.218-1.034.029-2.036.06-3.037.09.03-.303.06-.638.06-.975.88-.029 1.762-.06 2.614-.091.06-.761.09-1.522.15-2.285l-2.612.092c0-.305.03-.577.06-.884l2.797-.09c0-.396.06-.792.089-1.218.062-.398.122-.824.184-1.22-1.975.032-3.92.061-5.864.154M59.64 9.872c-.333-.303-.73-.455-1.276-.455.608-.153 1.033-.427 1.277-.793.273-.395.394-.852.333-1.431-.092-.822-.425-1.432-1.064-1.766-.576-.306-1.366-.427-2.398-.306-.092.032-.184.032-.305.061-.973.123-1.945.305-2.915.458-.184 1.613-.274 3.198-.365 4.75a85.358 85.358 0 0 1-.336 4.753c1.307-.213 2.614-.456 3.921-.67l.242-.03c1.154-.184 2.034-.547 2.674-1.158.607-.61.88-1.34.789-2.223-.061-.52-.243-.914-.576-1.19m-3.646-2.374c.12-.031.244-.061.394-.061l.123-.031c.15 0 .302.03.394.092.12.06.213.213.213.365a.556.556 0 0 1-.213.519 1.65 1.65 0 0 1-.394.182 6.01 6.01 0 0 1-.457.092c-.06.029-.09.029-.152.029.031-.395.063-.792.092-1.187m.971 4.447c-.091.09-.244.151-.454.214a2.73 2.73 0 0 1-.578.152c-.091 0-.154.03-.214.03.033-.488.06-.975.06-1.462.186 0 .336-.03.488-.06.092-.031.181-.031.244-.031.181 0 .334.03.423.06a.471.471 0 0 1 .273.458.69.69 0 0 1-.242.64M61.25 9.113c-.092 1.583-.181 3.137-.365 4.72 1.032-.122 2.066-.243 3.1-.395.182-1.553.303-3.137.394-4.692.061-1.553.182-3.137.395-4.69-1.062.091-2.096.212-3.13.334-.181 1.586-.333 3.169-.394 4.723M70.213 3.295c-.76.06-1.459.303-2.096.668a4.724 4.724 0 0 0-1.612 1.495 5.625 5.625 0 0 0-.727 1.705c-.123.609-.123 1.28-.062 1.95.09.638.273 1.248.546 1.767a3.898 3.898 0 0 0 1.064 1.339c.365.334.79.548 1.276.7.455.123.972.184 1.489.123.273-.03.516-.062.759-.153.273-.09.518-.183.791-.304.09-.58.15-1.127.182-1.705.06-.55.091-1.098.152-1.645a4.136 4.136 0 0 1-.792.455c-.273.122-.515.215-.788.215a1.416 1.416 0 0 1-1.125-.307c-.273-.274-.455-.639-.516-1.095-.06-.579.06-1.066.365-1.462.273-.396.728-.61 1.245-.67.273-.03.546 0 .85.06.275.091.578.214.911.366 0-.517.032-1.036.092-1.552l.181-1.555a4.06 4.06 0 0 0-1.03-.335 4.704 4.704 0 0 0-1.155-.06M41.96 9.812a3.12 3.12 0 0 0-1.612-1.156c-.302-.092-.698-.121-1.183-.092-.124.031-.274.031-.426.06-.395.032-.85.121-1.338.245l-2.278.548c-.182 1.615-.273 3.229-.334 4.813-.06 1.584-.15 3.197-.334 4.812.882-.214 1.762-.456 2.644-.67a15.766 15.766 0 0 0 1.64-.486c.334-.124.669-.276.942-.429a6.315 6.315 0 0 0 1.762-1.338 5.551 5.551 0 0 0 1.123-1.981 5.624 5.624 0 0 0 .182-2.253c-.09-.853-.363-1.524-.788-2.073m-2.644 4.631a2.466 2.466 0 0 1-.577.548c-.273.153-.578.305-.942.365h-.03c0-.608.03-1.249.06-1.889l.091-1.888.06-.03c.274-.06.517-.06.761 0 .152.03.273.09.396.183.303.213.484.548.546 1.035.09.64-.03 1.218-.365 1.676M48.49 8.869l-.09 2.374c-.062.853-.122 1.372-.243 1.616a.64.64 0 0 1-.548.395c-.182.062-.333 0-.486-.09-.09-.092-.181-.275-.212-.519v-.365c-.032-.152 0-.458.031-.913.03-.793.06-1.556.12-2.317.031-.76.122-1.523.214-2.315-1.033.215-2.066.428-3.07.642-.09.669-.18 1.369-.211 2.04-.062.67-.09 1.341-.122 2.04-.03.579-.03 1.036-.03 1.37 0 .337 0 .611.03.823.06.52.182.946.395 1.34.183.367.456.671.79.914.668.49 1.58.579 2.703.366.67-.122 1.246-.395 1.795-.761.546-.397.97-.884 1.303-1.493.152-.304.306-.67.398-1.127.09-.457.15-1.035.212-1.707.03-.882.06-1.766.121-2.648.06-.853.121-1.737.242-2.652-1.034.184-2.066.398-3.097.58-.092.823-.184 1.615-.244 2.407M33.209 14.687c.305-.58.427-1.28.335-2.041-.122-.914-.486-1.524-1.124-1.827-.639-.305-1.49-.305-2.582-.061a.572.572 0 0 1-.213.06 126.44 126.44 0 0 0-3.22.883c-.183 1.644-.273 3.29-.334 4.903-.06 1.616-.122 3.261-.304 4.906 1.003-.306 2.005-.609 3.008-.914.09-.61.15-1.19.181-1.797l.092-1.766c.213.516.425 1.065.638 1.584.06.121.091.242.152.395.152.366.273.76.425 1.158 1.034-.276 2.035-.579 3.069-.853a25.193 25.193 0 0 0-.7-1.616c-.242-.547-.516-1.065-.789-1.613.607-.336 1.093-.792 1.366-1.4m-2.885-.093c-.121.122-.273.243-.486.335a1.32 1.32 0 0 1-.486.182c-.091.031-.152.06-.243.06l.09-1.856a.422.422 0 0 1 .183-.062c.181-.06.335-.06.456-.09.152 0 .273 0 .394.06.182.06.275.243.304.517.06.336-.03.64-.212.854"/></g></g></symbol><symbol id="printer" viewBox="0 0 24 24"><path d="M14 20H8v-1h6v1zM24 5v13h-4v6H4v-6H0V5h4V0h16v5h4zm-6 10H6v7h12v-7zm0-13H6v3h12V2zm4 5.5a.5.5 0 1 0-1 0 .5.5 0 0 0 1 0zM16 17H8v1h8v-1z"/></symbol><symbol id="tickets" viewBox="0 0 25 16"><path d="M7.617 0H.987A.988.988 0 0 0 0 .99v3.783c0 .552.45.985 1.001.989a2.238 2.238 0 0 1 0 4.476.995.995 0 0 0-1.001.989v3.784c0 .546.442.989.987.989h6.63a.33.33 0 0 0 .33-.33V.33a.33.33 0 0 0-.33-.33ZM24.036 5.764a.992.992 0 0 0 .964-.99V.99A.988.988 0 0 0 24.013 0H10.25a.33.33 0 0 0-.33.33v15.34c0 .182.148.33.33.33h13.763a.988.988 0 0 0 .987-.99v-3.785a.992.992 0 0 0-.964-.989c-2.852-.097-2.859-4.375 0-4.472Zm-4.676 5.042h-6.154a.988.988 0 0 1-.987-.99c0-.546.442-.99.987-.99h6.154c.545 0 .987.444.987.99 0 .547-.442.99-.987.99Zm0-3.633h-6.154a.988.988 0 0 1-.987-.99c0-.546.442-.989.987-.989h6.154c.545 0 .987.443.987.99 0 .546-.442.989-.987.989Z"/></symbol><symbol id="youtube-play" viewBox="0 0 80 80"><g fill="none" fill-rule="evenodd"><path d="M0 0h80v80H0z"/><path d="M79.2 23.89s-.782-5.552-3.18-7.996c-3.042-3.21-6.453-3.225-8.015-3.412-11.195-.815-27.987-.815-27.987-.815h-.035s-16.793 0-27.988.816c-1.565.186-4.972.2-8.018 3.41C1.58 18.34.8 23.89.8 23.89S0 30.411 0 36.93v6.112c0 6.521.8 13.04.8 13.04s.78 5.552 3.178 7.996c3.044 3.21 7.042 3.11 8.822 3.444 6.4.62 27.2.811 27.2.811s16.81-.025 28.005-.84c1.563-.19 4.973-.204 8.015-3.414 2.398-2.445 3.18-7.996 3.18-7.996s.8-6.52.8-13.04v-6.114c0-6.518-.8-13.039-.8-13.039Z" fill="#EB0000"/><path fill="#FFF" d="m31.74 50.45-.002-22.637 21.614 11.358z"/></g></symbol></svg>