<?xml version="1.0" encoding="UTF-8"?>
<svg width="12px" height="16px" viewBox="0 0 12 16" version="1.1" xmlns="http://www.w3.org/2000/svg" xmlns:xlink="http://www.w3.org/1999/xlink">
    <title>document-svgrepo-com</title>
    <g id="1.-Design" stroke="none" stroke-width="1">
        <g id="Zápasy" transform="translate(-925.000000, -272.000000)" >
            <g id="CONTENT" transform="translate(380.000000, 152.000000)">
                <g id="zápas" transform="translate(0.000000, 104.000000)">
                    <g id="document-svgrepo-com" transform="translate(545.000000, 16.000000)">
                        <polygon id="Path" points="9.09477216 15.2261224 11.194856 13.1689796 9.09477216 13.1689796"></polygon>
                        <path d="M8.42717361,16 L8.42717361,12.8522449 C8.42717361,12.6759184 8.57142857,12.5355102 8.75258597,12.5355102 L12,12.5355102 L12,0 L0,0 L0,16 L8.42717361,16 L8.42717361,16 Z M1.55325692,2.07020408 L10.4500978,2.07020408 C10.6312552,2.07020408 10.7755102,2.21061224 10.7755102,2.38693878 C10.7755102,2.56326531 10.6312552,2.70367347 10.4500978,2.70367347 L1.55325692,2.70367347 C1.37209952,2.70367347 1.22784456,2.56326531 1.22784456,2.38693878 C1.2144255,2.21061224 1.36874476,2.07020408 1.55325692,2.07020408 Z M1.55325692,4.5844898 L10.4500978,4.5844898 C10.6312552,4.5844898 10.7755102,4.72489796 10.7755102,4.90122449 C10.7755102,5.07755102 10.6312552,5.21795918 10.4500978,5.21795918 L1.55325692,5.21795918 C1.37209952,5.21795918 1.22784456,5.07755102 1.22784456,4.90122449 C1.2144255,4.73795918 1.36874476,4.5844898 1.55325692,4.5844898 Z M1.55325692,7.11183673 L10.4500978,7.11183673 C10.6312552,7.11183673 10.7755102,7.2522449 10.7755102,7.42857143 C10.7755102,7.60489796 10.6312552,7.74530612 10.4500978,7.74530612 L1.55325692,7.74530612 C1.37209952,7.74530612 1.22784456,7.60489796 1.22784456,7.42857143 C1.22784456,7.2522449 1.36874476,7.11183673 1.55325692,7.11183673 Z M1.2144255,9.95591837 C1.2144255,9.77959184 1.35868046,9.63918367 1.53983785,9.63918367 L10.4366788,9.63918367 C10.6178362,9.63918367 10.7620911,9.77959184 10.7620911,9.95591837 C10.7620911,10.1322449 10.6178362,10.2726531 10.4366788,10.2726531 L1.55325692,10.2726531 C1.36874476,10.2726531 1.2144255,10.1322449 1.2144255,9.95591837 Z" id="Shape"></path>
                    </g>
                </g>
            </g>
        </g>
    </g>
</svg>