<?xml version="1.0" encoding="UTF-8"?>
<svg width="16px" height="16px" viewBox="0 0 16 16" version="1.1" xmlns="http://www.w3.org/2000/svg" xmlns:xlink="http://www.w3.org/1999/xlink">
    <title>photo-7-svgrepo-com</title>
    <g id="1.-Design" stroke="none" stroke-width="1" fill="none" fill-rule="evenodd">
        <g id="HP-3" transform="translate(-508.000000, -805.000000)" fill="#EB0000" fill-rule="nonzero">
            <g id="Předešlý-zápas" transform="translate(340.000000, 686.000000)">
                <g id="photo-7-svgrepo-com" transform="translate(168.000000, 119.000000)">
                    <path d="M0,0 L0,16 L16,16 L16,0 L0,0 Z M5.0984375,3.752 C5.99775,3.752 6.72659375,4.48109375 6.72659375,5.3804375 C6.72659375,6.27978125 5.99775,7.008875 5.0984375,7.008875 C4.19915625,7.008875 3.47003125,6.27978125 3.47003125,5.3804375 C3.47003125,4.48109375 4.199125,3.752 5.0984375,3.752 Z M14.2005312,12.0789062 C14.144625,12.1828125 14.0359375,12.248 13.9177187,12.248 L2.08228125,12.248 C1.96434375,12.248 1.85590625,12.1834063 1.79975,12.0795 C1.7435625,11.9755625 1.74890625,11.8491875 1.81378125,11.7505938 L3.88403125,8.59625 C4.02134375,8.38703125 4.2483125,8.25359375 4.49796875,8.23590625 C4.74796875,8.21821875 4.99146875,8.3179375 5.15715625,8.5058125 L6.5850625,10.124125 L9.17234375,6.18675 C9.320625,5.96121875 9.5725625,5.825 9.84246875,5.82471831 C10.112375,5.8244375 10.3645937,5.96009375 10.5131875,6.18534375 L14.1859375,11.74975 C14.2510625,11.848625 14.2567187,11.975 14.2005312,12.0789062 Z" id="Shape"></path>
                </g>
            </g>
        </g>
    </g>
</svg>