<?xml version="1.0" encoding="UTF-8"?>
<svg width="16px" height="12px" viewBox="0 0 16 12" version="1.1" xmlns="http://www.w3.org/2000/svg" xmlns:xlink="http://www.w3.org/1999/xlink">
    <title>live-svgrepo-com-2</title>
    <g id="1.-Design" stroke="none" stroke-width="1" fill="none" fill-rule="evenodd">
        <g id="HP-3" transform="translate(-1058.000000, -808.000000)" fill="#EB0000" fill-rule="nonzero">
            <g id="Další-zápas" transform="translate(774.000000, 687.000000)">
                <g id="live-svgrepo-com-2" transform="translate(284.000000, 121.000000)">
                    <path d="M3.47422504,0.238584159 C3.78656397,0.556696371 3.78656397,1.07245818 3.47422504,1.39057039 C0.97470856,3.93628807 0.97470856,8.06371192 3.47422504,10.6094296 C3.78656397,10.9275419 3.78656397,11.4433037 3.47422504,11.7614159 C3.16188612,12.079528 2.65548467,12.079528 2.34314575,11.7614159 C-0.781048582,8.57947374 -0.781048582,3.42052627 2.34314575,0.238584159 C2.65548467,-0.079528053 3.16188612,-0.079528053 3.47422504,0.238584159 Z M13.6568543,0.238584159 C16.7810486,3.42052627 16.7810486,8.57947374 13.6568543,11.7614159 C13.3445153,12.079528 12.8381139,12.079528 12.5257749,11.7614159 C12.213436,11.4433037 12.213436,10.9275419 12.5257749,10.6094296 C15.0252915,8.06371192 15.0252915,3.93628807 12.5257749,1.39057039 C12.213436,1.07245818 12.213436,0.556696371 12.5257749,0.238584159 C12.8381139,-0.079528053 13.3445153,-0.079528053 13.6568543,0.238584159 Z M5.84693331,2.57917098 C6.15927223,2.89728321 6.15927223,3.413045 5.84693331,3.73115722 C4.62247887,4.97824455 4.62247887,7.00017262 5.84693331,8.24725988 C6.15927223,8.5653721 6.15927223,9.08113392 5.84693331,9.39924614 C5.53459439,9.71735836 5.02819294,9.71735836 4.71585401,9.39924614 C2.86672172,7.51593436 2.86672172,4.46248273 4.71585401,2.57917098 C5.02819294,2.26105877 5.53459439,2.26105877 5.84693331,2.57917098 Z M11.4121544,2.57917098 C13.2612866,4.46248273 13.2612866,7.51593436 11.4121544,9.39924614 C11.0998155,9.71735836 10.593414,9.71735836 10.2810751,9.39924614 C9.96873614,9.08113392 9.96873614,8.5653721 10.2810751,8.24725988 C11.5055295,7.00017262 11.5055295,4.97824455 10.2810751,3.73115722 C9.96873614,3.413045 9.96873614,2.89728321 10.2810751,2.57917098 C10.593414,2.26105877 11.0998155,2.26105877 11.4121544,2.57917098 Z M8.06400423,4.83507966 C8.72657512,4.83507966 9.26369499,5.3821276 9.26369499,6.05694557 C9.26369499,6.73176346 8.72657512,7.27881149 8.06400423,7.27881149 C7.40143326,7.27881149 6.86431347,6.73176346 6.86431347,6.05694557 C6.86431347,5.3821276 7.40143326,4.83507966 8.06400423,4.83507966 Z" id="🎨-Color"></path>
                </g>
            </g>
        </g>
    </g>
</svg>