<?xml version="1.0" encoding="UTF-8"?>
<svg width="13px" height="16px" viewBox="0 0 13 16" version="1.1" xmlns="http://www.w3.org/2000/svg" xmlns:xlink="http://www.w3.org/1999/xlink">
    <title>location-alt-fill</title>
    <g id="1.-Design" stroke="none" stroke-width="1" fill="none" fill-rule="evenodd">
        <g id="HP-2" transform="translate(-518.000000, -840.000000)" fill="#272727">
            <g id="ZÁPASY" transform="translate(0.000000, 662.000000)">
                <g id="Předešlý-zápas" transform="translate(308.000000, 40.000000)">
                    <g id="location-alt-fill" transform="translate(210.000000, 138.000000)">
                        <path d="M6.96641111,15.8099829 C8.45570556,14.3880577 13,9.79582117 13,6.70127299 C13,3.00026514 10.0898778,0 6.5,0 C2.91015111,0 0,3.00026514 0,6.70127299 C0,9.79582117 4.54430889,14.3880577 6.03358889,15.8099829 C6.29900556,16.063339 6.70099444,16.063339 6.96641111,15.8099829 Z M6.5,9.59961971 C8.09546111,9.59961971 9.38888889,8.27716133 9.38888889,6.64589057 C9.38888889,5.01459027 8.09546111,3.69216143 6.5,3.69216143 C4.90451,3.69216143 3.61111111,5.01459027 3.61111111,6.64589057 C3.61111111,8.27716133 4.90451,9.59961971 6.5,9.59961971 Z" id="Shape"></path>
                    </g>
                </g>
            </g>
        </g>
    </g>
</svg>