<?xml version="1.0" encoding="UTF-8"?>
<svg width="93px" height="120px" viewBox="0 0 93 120" version="1.1" xmlns="http://www.w3.org/2000/svg" xmlns:xlink="http://www.w3.org/1999/xlink">
    <title>LOGO</title>
    <g id="1.-Design" stroke="none" stroke-width="1" fill="none" fill-rule="evenodd">
        <g id="HP-2" transform="translate(-308.000000, -16.000000)">
            <g id="LOGO" transform="translate(308.000000, 16.000000)">
                <g id="Group-1128">
                    <path d="M91.6895634,23.5896055 L83.480061,16.1936179 C82.6493615,15.4439208 82.2271631,14.3371482 82.3472157,13.2214892 L82.6203555,10.6961088 C82.633247,10.4521341 82.685619,9.30092904 82.7508825,7.85889323 L82.7589397,7.70943854 C82.8129231,6.49764373 82.879798,5.01521476 82.9176669,4.32126027 C82.9128326,4.13464387 82.9241127,3.94479601 82.9507015,3.75575603 L82.966816,3.637808 C82.9700389,3.62165073 82.9732618,3.60306988 82.9748732,3.58691262 L82.981319,3.53763296 C83.0941201,2.65221489 82.8225917,1.75467887 82.236026,1.07607378 C81.6405974,0.395852969 80.7849205,0.00323145281 79.8817061,0 L79.8083853,0 C77.875458,0.0298909385 75.8877416,0.0605897401 73.912111,0.152686145 C72.8243862,0.226201697 62.1074766,1.1746331 61.2703313,1.27157668 C60.8610245,1.31843275 59.4091132,1.53170863 58.2408162,1.70216777 C56.8541685,1.90413357 56.4174671,1.96633903 56.2047565,1.99461425 L56.1604417,1.99946142 C56.0685894,2.01077151 55.9904344,2.02208159 55.9138908,2.037431 C55.8808562,2.0438939 55.849433,2.05035681 55.8172041,2.05520399 L55.5666246,2.09640501 C55.5360071,2.10125219 55.504584,2.10609937 55.4723551,2.11094655 C54.889818,2.190925 54.2943894,2.28948431 53.7690586,2.37834927 L53.6578689,2.39612226 C53.3718376,2.44378619 53.0906405,2.49145011 52.8094435,2.53588259 C52.5475838,2.57708361 51.5170653,2.74754275 51.2834059,2.78955164 C50.7516293,2.88326377 50.224687,2.98505453 49.7178878,3.08199811 L49.2779636,3.16520802 C48.9016914,3.23791571 48.5447565,3.30496836 48.1918502,3.36717383 C47.7849605,3.43907365 46.8688545,3.60791706 46.5739602,3.67254612 L46.5135311,3.68547193 C46.5054738,3.68708765 46.4990281,3.68870338 46.4909708,3.69031911 C45.5716419,3.88016696 44.5459577,4.09182712 43.5565309,4.30187155 C42.7089113,4.48202504 37.4717177,5.61707284 36.6692184,5.81419146 L34.3938592,6.36192271 C34.1223309,6.42735963 33.4954791,6.58812441 32.5697044,6.82725192 C30.9880719,7.23764643 29.7335626,7.56240743 29.1631114,7.68843409 C29.0930135,7.70459136 29.0237214,7.72317221 28.9568465,7.7409452 C28.9391206,7.74579238 28.9222005,7.75063956 28.906086,7.75548674 L28.7691133,7.79345631 C28.7521931,7.79991921 28.7344672,7.80315067 28.7167413,7.80799785 C27.7925781,8.04793322 26.7830083,8.32503029 25.5413905,8.6804901 L24.0596676,9.10704187 C23.4070327,9.295274 22.7447291,9.48592972 22.4828694,9.56106099 L22.1364089,9.6596203 C21.6698959,9.79291773 21.1469822,9.93994884 20.6280972,10.1071765 C20.6087598,10.1136394 20.5894225,10.1209102 20.5692795,10.1273731 L20.4153865,10.1726134 C20.3976607,10.1782685 20.3783233,10.1847314 20.3581803,10.1895786 C20.1623898,10.2453211 19.9754623,10.3010637 19.8006206,10.3535748 L19.7353571,10.3729635 C19.550041,10.4303218 19.3751993,10.4812172 19.2229178,10.5224182 C18.6734154,10.6686414 16.7831913,11.2979669 15.4005722,11.7592568 C14.1202798,12.1850007 13.3105291,12.4540191 12.8480446,12.5970109 C12.7819754,12.6163996 12.7167119,12.6398277 12.6514484,12.6640636 C12.6304996,12.6721422 12.6071337,12.6802208 12.5845735,12.6891073 L12.4113432,12.7513128 L12.345274,12.7723172 C11.4984601,13.0574929 10.3760892,13.4396122 9.2134322,13.8726269 C8.07978121,14.2959472 7.28292205,15.3469772 7.18220679,16.5523091 C7.04442831,18.1777299 6.96627327,19.9114043 6.92679288,22.1742292 L6.92679288,22.210583 C6.89536972,24.0161573 6.86797517,25.7215565 6.72536236,27.4681567 C6.71891658,27.5287465 6.71569369,27.5957991 6.71408225,27.6596203 L6.6794362,29.4062205 C6.66332176,30.2512455 6.34103292,31.0599165 5.77541601,31.6843948 L0.814585042,37.1536287 C0.289254234,37.7344823 0,38.4857951 0,39.2678067 L0,40.75993 C0,40.8996903 0.00966866519,41.0402585 0.0273945514,41.1800189 L0.240105185,42.7626229 C0.252996739,42.8522957 0.268305459,42.9411606 0.287642789,43.0300256 L0.827476596,45.4697725 C0.833922372,45.4996634 0.840368149,45.5287465 0.845202482,45.5586374 L1.45513411,48.7004174 C1.46721994,48.761815 1.48172294,48.8240205 1.49622594,48.8878417 L2.64921426,53.3844082 C2.65082571,53.3941026 2.65243715,53.4029891 2.65404859,53.4110677 L4.04150205,58.9998654 C4.05278216,59.0507607 4.0688966,59.1065033 4.08581676,59.1622459 L5.26136531,63.0666487 L6.91551278,68.0834792 C7.19993268,68.9462771 7.13789207,69.885822 6.73986536,70.7041874 L4.14302303,76.0603205 C3.8062312,76.7591221 3.73532765,77.5524438 3.94803828,78.2972937 L4.07292521,78.7303083 C4.10193121,78.8337148 4.13980014,78.9419685 4.18089197,79.0437593 L4.90845903,80.8396392 C4.93746502,80.9147704 4.97372252,80.9915174 5.00998001,81.0658409 L5.86001683,82.7696243 C5.87693699,82.8003231 5.89305143,82.8350613 5.91238876,82.8681837 L7.18704112,85.2117948 C7.21443567,85.2602666 7.23941306,85.3046991 7.26519617,85.3475158 L9.0820995,88.3277232 C9.09096244,88.3390333 9.10063111,88.3535748 9.10868833,88.3681163 L11.4541454,92.3355325 L13.0148291,94.8657601 C13.0470579,94.9166554 13.0784811,94.9643194 13.1090986,95.0087519 L14.8172294,97.4557695 C14.8478468,97.4961626 14.87927,97.5405951 14.9114989,97.5817961 L16.7138992,99.9019793 L18.5444998,102.205197 C18.56706,102.23428 18.5936489,102.265787 18.6162091,102.293254 L20.4975702,104.490642 L22.1791122,106.388313 C22.2081182,106.421435 22.2395414,106.45375 22.2701588,106.488488 L25.6695004,110.017234 C25.708175,110.05682 25.7508783,110.098021 25.7935816,110.139222 L28.7723362,112.911808 C28.8214852,112.956241 28.8738571,113.002289 28.9278405,113.046721 L31.3659556,115.042144 C31.3893215,115.059109 31.4118817,115.078497 31.4352477,115.097886 L36.2437972,119.237377 C36.8142484,119.729366 37.5410098,120 38.2895256,120 C38.7705417,120 39.2499463,119.886899 39.6802019,119.673623 C39.830872,119.598492 43.4235868,117.792918 49.908844,112.859297 C49.9354328,112.841524 49.957993,112.822135 49.9845819,112.803555 L50.1433091,112.690454 L54.7117534,109.201293 L56.4368044,107.685741 L58.4180751,105.910866 C58.4768928,105.858355 58.5373219,105.799381 58.5929168,105.742022 L60.6209193,103.616534 C60.6289765,103.610071 60.6354223,103.601993 60.6434795,103.59553 L62.9172273,101.253534 C62.9663763,101.202639 63.0187482,101.146896 63.0614515,101.094385 L65.4020742,98.3234146 C65.4407489,98.2773664 65.4737835,98.2345496 65.5068181,98.1917329 L67.8442179,95.1170055 C67.8732239,95.0774202 67.9046471,95.0346035 67.9352645,94.9909789 L70.345985,91.4840447 L72.932353,87.7630268 C72.9911707,87.6798169 73.0467655,87.5909519 73.0959145,87.5028948 L75.4099484,83.3747139 L77.8867381,78.8143261 C77.9125212,78.7666622 77.9358872,78.7222297 77.956836,78.6777972 L79.1412474,76.2081594 C79.1557504,76.1766528 79.1718649,76.1475697 79.1839507,76.1144473 L80.2716756,73.6254208 L81.8565309,69.7727212 C81.8726454,69.7347516 81.8887598,69.6927427 81.9032628,69.6531574 L83.3318081,65.7600646 L84.6862269,61.8338495 C84.7039528,61.7861855 84.7136215,61.7498317 84.726513,61.7110543 L85.8996444,57.8155379 L87.0735815,53.7948027 C87.0856673,53.7568332 87.0937246,53.7220951 87.1017818,53.6881648 L88.0960429,49.7635654 L89.788865,42.549347 C89.7969222,42.5129931 89.8049794,42.4742157 89.8138424,42.4362461 L91.0764089,36.0977514 L92.0360239,30.9839774 C92.0448869,30.9379292 92.0529441,30.8943046 92.0593899,30.8482564 L92.6951046,26.3710785 C92.8441632,25.3313586 92.4695024,24.2916386 91.6895634,23.5896055" id="Fill-1048" fill="#FFFFFF"></path>
                    <path d="M59.0811844,88.6586239 C44.9786305,70.191679 40.616451,41.5820116 38.465173,22.0632288 L38.465173,22.0591894 C38.3572062,22.0866568 38.2524624,22.1100848 38.1444956,22.1367443 C28.0528263,24.530443 18.4735963,27.6738387 9.78468917,31.652565 C13.5836689,73.5943988 25.0370085,99.0598627 40.3465341,113.196661 C47.7551488,106.228841 54.2492689,98.3481352 59.7442936,89.5521206 C59.7483222,89.544042 59.7563795,89.5359634 59.7596024,89.5286926 C59.5364173,89.2467484 59.308398,88.9567255 59.0811844,88.6586239" id="Fill-1050" fill="#273766"></path>
                    <path d="M59.7599246,89.5286118 C59.5359339,89.2466676 59.3087203,88.9566447 59.0815066,88.6585432 C44.978147,70.1915982 40.6167733,41.5819308 38.4646896,22.063148 C61.6686803,16.7078228 79.6548147,16.1011175 79.6548147,16.1011175 C81.1051145,56.5540595 62.1432506,85.9982496 59.7599246,89.5286118" id="Fill-1052" fill="#D8232A"></path>
                    <path d="M70.4200309,34.6305103 C70.8156404,34.874485 70.9389159,35.2129797 71.0903917,35.3963646 C71.1524323,35.488461 71.2442846,35.5506665 71.3361369,35.5506665 L71.7333579,34.7848122 L71.0903917,34.171644 L70.4200309,34.6305103 Z" id="Fill-1054" fill="#FFFFFF"></path>
                    <path d="M49.1471143,40.7592837 C48.9626039,40.7293928 48.7482819,40.698694 48.5355712,40.6364885 C48.0755039,40.515309 47.6178538,40.3917059 47.1892096,40.3295005 C47.0989687,40.3295005 46.976499,40.3295005 46.8854524,40.3004174 L46.6397071,40.3004174 C46.579278,40.3004174 46.5172374,40.3004174 46.4568082,40.3295005 C46.182057,40.3295005 45.9379232,40.4232126 45.7219897,40.5443921 C45.480273,41.3724519 45.7219897,42.0470176 45.8154534,42.8435708 L46.2731036,43.2418473 L46.4568082,43.2418473 C46.5172374,43.2717383 46.579278,43.2717383 46.6397071,43.2717383 L46.8854524,43.3032449 C46.976499,43.3032449 47.0989687,43.3339437 47.1892096,43.3339437 C47.4349548,43.3654504 47.6492769,43.4260401 47.8007527,43.4866299 L48.5355712,43.1505588 L48.6266178,43.1190521 C48.6266178,42.812872 48.5960004,42.475993 48.5355712,42.1698128 C48.5041481,41.9549212 48.4751421,41.7400296 48.4751421,41.5873435 L48.5355712,41.4952471 L49.1471143,40.7592837 Z M46.9458815,41.832126 L46.8854524,41.7400296 L46.6711303,41.3724519 C46.7315595,41.3118621 46.7936001,41.2811633 46.8854524,41.2811633 C47.1287804,41.3118621 47.3431025,41.7101387 46.9458815,41.832126 L46.9458815,41.832126 Z" id="Fill-1056" fill="#FFFFFF"></path>
                    <path d="M73.8735169,35.5497778 C73.3530205,35.2742965 72.6810482,35.5497778 72.2838272,35.5497778 L72.1315458,36.2857412 C72.5891959,37.2357883 73.8114763,37.6033661 74.4528311,38.3078228 C74.5769123,38.460509 74.6977706,38.6463175 74.7912344,38.8595934 C75.4027775,38.7359903 75.584065,39.2578699 75.9820917,39.3806651 C76.5332056,39.4727615 76.7475277,38.8595934 76.7475277,38.6148108 C76.0425208,37.9410529 75.1562265,37.0515955 74.4528311,36.2235357 C74.2401205,35.9795611 74.0564159,35.7646694 73.8735169,35.5497778" id="Fill-1058" fill="#FFFFFF"></path>
                    <path d="M65.7432975,25.0076478 C66.7504501,24.7006598 67.7914431,24.3338899 68.7985957,24.0584085 C69.5640317,23.8435169 70.3278563,23.7199138 71.0916808,23.7199138 C71.8869285,23.7199138 72.6813705,23.9041066 73.4451951,24.3629729 L74.117973,25.130443 C74.5458115,25.7419954 74.3927243,26.5409721 74.3927243,27.061236 C73.4766182,28.5945604 72.3445787,29.9719671 71.0916808,31.1983035 C70.357668,31.8728693 69.5938434,32.5466272 68.7985957,33.1290965 C67.8220605,33.8634442 66.811685,34.5388178 65.7432975,35.1527939 C64.0311381,36.1626229 62.2287377,36.9906826 60.4553434,37.7258382 C60.1805922,37.7864279 59.9348469,37.88014 59.6600957,37.9407298 C57.3363931,38.5538979 55.1673893,39.2882456 52.9363448,39.8392083 C52.6930167,39.9022216 52.4472714,39.9329204 52.2039434,39.9935102 L51.9275807,40.2399084 L51.7752992,40.3925946 L51.4070842,39.6558233 C51.3168433,39.5952336 51.2241853,39.5637269 51.132333,39.5330281 C50.8575817,39.4118487 50.5514073,39.4724384 50.3370853,39.4724384 L49.9414757,39.7180288 C49.6965362,39.68733 49.4524024,39.6267403 49.2380803,39.5637269 C48.9947523,39.5330281 48.7804302,39.4724384 48.5346849,39.4118487 C48.0770348,39.2882456 47.6483906,39.1363673 47.1907405,39.0442709 C47.0988882,39.0127642 46.9764184,38.9820654 46.8845661,38.9521745 C46.7927138,38.9214757 46.7306732,38.9214757 46.6388208,38.889969 C46.5783917,38.889969 46.5179625,38.8592702 46.4559219,38.8592702 C46.1811707,38.7978726 45.9064194,38.7687896 45.6316682,38.7372829 L45.4793867,39.1048606 C45.6920974,39.4724384 46.0893184,39.380342 46.4559219,39.380342 L46.6388208,39.380342 C46.7306732,39.4118487 46.8241369,39.4425475 46.8845661,39.4724384 C46.9449952,39.5330281 47.0070358,39.6267403 47.0690764,39.7180288 L47.1907405,39.7479198 C47.6169675,39.8101252 48.1076522,39.7479198 48.5346849,39.7180288 C48.8094362,39.7180288 49.0237582,39.7479198 49.2380803,39.8392083 C49.2985095,39.9022216 49.3589386,39.9329204 49.421785,39.9935102 L49.7875828,40.7593645 L51.132333,40.7593645 L51.4070842,40.7593645 L51.4070842,41.9243032 C51.2862259,41.9865087 51.1927621,42.0470984 51.132333,42.138387 C50.9510455,42.4146762 51.0404807,42.7814461 51.132333,43.1191329 C51.4675134,43.0278444 51.7148701,43.0278444 51.9275807,43.0278444 C52.1104796,43.0278444 52.2643725,43.0278444 52.4472714,42.9672546 L52.7220227,42.5681702 C52.6011644,41.8322068 52.3248017,41.5874243 52.3248017,41.0348458 L52.7220227,40.6680759 L52.9363448,40.6680759 L53.1192437,40.6680759 C53.729981,40.7593645 53.8830682,41.1891477 54.2810949,41.3103272 C56.2373882,40.9742561 57.9793594,40.3004982 59.6600957,39.5637269 C61.7396644,38.6144877 63.6951519,37.4794399 65.7432975,36.6845025 C65.8641558,36.6239128 65.9560082,36.5907904 66.0784779,36.5302006 C66.6279804,36.0705265 66.8737256,35.8871415 67.3023698,35.6116602 C67.7914431,35.2739733 68.2805164,34.9379022 68.7985957,34.6002154 C69.5640317,34.0783358 70.357668,33.5588798 71.0916808,33.0054935 C72.4050078,32.0247475 73.599088,30.9527131 74.4531534,29.512293 C74.7601335,28.9613303 75.0026559,28.3796688 75.2185894,27.7349939 L75.2185894,25.7419954 C74.9744556,25.0698532 74.6980929,24.669961 74.4531534,24.3629729 L74.3927243,24.2716844 L73.599088,23.4743234 C72.7732228,23.1689511 71.9159345,22.9855662 71.0916808,22.8934698 C70.3278563,22.8005655 69.5640317,22.8005655 68.7985957,22.862771 C67.7302082,22.9540595 66.7214442,23.1689511 65.7432975,23.4444325 C64.7337277,23.7514205 63.7563868,24.1812037 62.929716,24.6093712 L62.8088576,25.4059243 C63.7563868,25.4665141 64.7635395,25.2831291 65.7432975,25.0076478" id="Fill-1060" fill="#FFFFFF"></path>
                    <path d="M59.6608208,60.2501144 C59.1419358,59.9431264 58.6826742,59.5763565 58.1315603,59.1772721 C57.5820578,59.1166824 57.3363126,59.1166824 56.940703,59.1166824 L56.8182333,59.4543692 L57.5820578,59.9431264 C57.9792788,60.2186078 57.9792788,61.0175845 58.2556415,61.1080652 L58.2556415,61.4764508 C58.5303927,62.0282214 58.5303927,62.4870877 58.805144,62.6720883 C59.0798952,62.4870877 59.3860696,62.3344015 59.6608208,62.1510166 C60.1789001,61.8440285 60.6075443,61.5378484 60.9451419,61.1080652 L60.8218664,60.7703783 C60.3932222,60.6193079 59.9960012,60.4334994 59.6608208,60.2501144" id="Fill-1062" fill="#FFFFFF"></path>
                    <path d="M51.1328164,57.7070419 L51.1328164,57.6464521 L50.7355954,57.3693551 L50.6139314,57.6464521 C50.826642,57.8904268 50.9789235,58.1368251 51.1328164,58.3807998 C51.5010314,58.9947758 51.7443595,59.6370271 51.9264527,60.3737983 L51.9264527,60.3422916 L52.2028154,59.9440151 C52.110963,59.6685337 52.0191107,59.4536421 51.9264527,59.2403662 C51.6823189,58.6562811 51.3471385,58.2580046 51.1328164,57.7070419" id="Fill-1064" fill="#FFFFFF"></path>
                    <path d="M45.8152117,38.0011579 L46.1213861,38.1845429 C46.2124327,38.2160495 46.3357082,38.2475562 46.4565665,38.278255 C46.5169957,38.308146 46.5790363,38.308146 46.6394654,38.308146 C46.7313177,38.3388448 46.7933583,38.3388448 46.8852107,38.3687357 C46.9762573,38.3687357 47.0995327,38.3994345 47.1905793,38.4309412 C47.6490352,38.4915309 48.1082968,38.5537364 48.5353295,38.7064225 C48.6561878,38.7371213 48.780269,38.7985189 48.9019331,38.8591087 L49.2387249,38.8591087 L49.9421203,38.8591087 C50.6140925,36.9299313 50.9186555,34.5685472 51.1329776,32.3921637 C51.1934067,31.9955029 51.2554473,31.5657197 51.2860648,31.1674431 L51.1329776,31.1359364 C50.5520519,30.9541672 49.8800797,30.8297563 49.2387249,30.7392756 C48.9945911,30.7085768 48.780269,30.6770701 48.5353295,30.6455635 C48.0768736,30.6164804 47.6490352,30.5542749 47.1905793,30.524384 L46.8852107,30.4936852 L46.6394654,30.4936852 L46.4565665,30.4621785 C46.0899629,30.4330955 45.7233594,30.4015888 45.3559501,30.4015888 L44.8056419,31.0462636 C45.9981106,33.2210314 45.8152117,35.8263902 45.8152117,38.0011579 L45.8152117,38.0011579 Z M48.2291551,32.8534536 L48.5353295,33.0061398 L49.0244028,33.2210314 C49.1162551,33.5272115 48.9019331,33.8341995 48.5353295,33.9254881 C48.4434772,33.9569947 48.3524306,33.9569947 48.2291551,33.9569947 C47.9544039,33.8947893 47.9544039,33.0683452 48.2291551,32.8534536 L48.2291551,32.8534536 Z M47.1599619,31.6893227 L47.1905793,31.7184058 L47.4653306,31.9648041 L47.3428608,32.6991517 L47.1905793,32.8841524 L46.9456398,33.2210314 C46.9456398,32.8534536 46.9456398,32.2402854 47.1599619,31.6893227 L47.1599619,31.6893227 Z M46.8852107,33.9254881 L47.0681096,33.8947893 C46.9456398,34.7834388 47.3428608,35.8869799 47.0681096,36.9299313 L46.9456398,37.0826175 C46.9142167,36.9913289 46.8852107,36.9299313 46.8852107,36.8370271 C46.701506,35.9168709 46.9142167,35.0589202 46.7933583,33.9569947 L46.8852107,33.9254881 Z" id="Fill-1066" fill="#FFFFFF"></path>
                    <path d="M51.2862259,37.3579373 C51.132333,37.5413222 51.132333,37.7271307 51.132333,37.8798169 L51.132333,37.9404066 C51.132333,38.0551232 51.132333,38.1520668 51.0815725,38.2449711 C51.1017155,38.2110408 51.11783,38.1714555 51.132333,38.1237916 C51.2862259,37.8168036 51.2862259,37.5106234 51.2862259,37.3579373" id="Fill-1068" fill="#FFFFFF"></path>
                    <path d="M75.6747893,39.7177057 L75.3396089,39.3800189 L74.9439993,39.3800189 C74.7602947,39.3194291 74.6064018,39.2273327 74.4533146,39.1352363 C73.4453562,38.5535748 72.6509142,37.6956241 71.7331968,37.3579373 C71.5188747,36.9903595 71.3045526,36.6526727 71.0902305,36.3456847 C70.7856676,35.9175172 70.4802989,35.5192406 70.1435071,35.1516629 C69.6560452,35.2752659 69.3498708,35.1516629 69.0130789,35.2752659 L68.7987569,35.4586509 C67.7601811,36.2850949 66.7506113,36.9903595 65.7434587,37.5728289 C65.6499949,37.6350343 65.559754,37.6641174 65.4356728,37.7271307 C63.7871654,39.166743 61.6463618,39.7177057 59.6602568,40.4229702 C59.2316127,40.5756564 58.7739625,40.7590413 58.3767415,40.9133432 C57.9787148,41.1888246 57.9787148,41.6476909 57.8578565,42.0467753 C57.5831053,43.1188097 57.3365543,44.2223509 57.4896415,45.1118083 L57.0618031,45.3872896 L56.6653878,44.9882052 C56.8176693,43.5800996 57.3365543,42.6906423 57.3365543,41.5871011 C56.8176693,41.5871011 56.145697,41.6476909 55.7170529,41.8318837 L55.0740866,42.567847 L54.8307586,43.3030026 C55.2279796,44.8363269 55.5027308,46.1216373 54.8307586,47.5636731 L54.4021144,47.5636731 C54.1579806,46.9189982 54.4021144,46.489215 54.4021144,46.0004578 C53.9130411,46.0610475 53.4255792,46.1216373 52.9365059,46.2153494 C52.6013255,46.2759391 52.263728,46.3381446 51.9269361,46.3987343 L51.1324941,46.5514205 C50.5209511,46.6742157 49.8795963,46.796203 49.2382415,46.8584085 C48.9941077,46.8891073 48.7805913,46.9189982 48.5348461,46.9496971 C48.1078134,46.9812037 47.6485518,47.0102868 47.1900959,47.0102868 C47.0990493,47.0102868 46.9757738,47.0102868 46.8847272,46.9812037 L46.638982,46.9812037 C46.5785528,46.9812037 46.5181237,46.9812037 46.4560831,46.9496971 C46.3352248,46.9496971 46.2119493,46.9496971 46.1209027,46.9189982 C45.4795479,47.3794803 45.0823269,47.7785647 44.6826887,48.5735021 C45.4795479,52.4043894 46.2731841,56.6343611 46.2731841,60.4943315 L46.4560831,60.7092231 L46.638982,60.8950316 L46.7928749,61.0178268 L46.8847272,61.0178268 L47.1900959,61.0178268 C47.6791692,60.9847045 48.1078134,60.8950316 48.5348461,60.8029352 C48.7805913,60.7698128 48.9941077,60.7092231 49.2382415,60.68014 C49.7273148,60.5880436 50.2163881,60.4943315 50.7344674,60.4943315 L50.8883603,60.2204659 C50.6136091,59.575791 50.2163881,59.3003097 50.2163881,58.6564427 L50.2163881,58.288865 C50.0318777,57.8606975 49.604845,57.6458058 49.2382415,57.4002154 C49.0553426,57.308119 48.8700265,57.1538172 48.7475567,57.0027467 C48.688739,56.7878551 48.6266984,56.6028544 48.5348461,56.4501683 C48.3221354,55.9597953 48.1078134,55.684314 48.2286717,55.0711458 L47.6791692,53.9692204 L47.6791692,52.8026659 L48.0771959,52.5271846 L48.4744169,52.8026659 L48.5348461,52.8656793 C48.9320671,53.2017504 49.0239194,53.8149185 49.1463892,54.3359903 L49.2382415,54.3973879 C50.002066,55.0105561 50.6136091,55.8685068 51.1324941,56.7272654 C51.4072454,57.1247341 51.6521849,57.5230106 51.9269361,57.9212872 C52.6013255,58.3195638 52.7221838,59.1169247 52.8760767,59.7300929 C52.9050827,59.882779 52.9050827,60.0354652 52.9365059,60.1897671 L52.9365059,60.8950316 C52.9050827,61.3538979 52.8760767,61.8442709 52.9365059,62.2425475 C52.9655119,62.5786186 53.0589757,62.8856066 53.2716863,63.131197 L53.6084781,63.4066783 L55.2279796,62.947812 C56.145697,62.947812 56.8176693,62.7628114 57.5831053,62.7628114 L57.7039636,62.48733 C57.3365543,62.0276559 57.0618031,61.4766931 56.542918,60.373152 C56.2681668,59.575791 55.0740866,59.8512724 54.8307586,59.1775145 C54.2812561,57.8606975 53.4545852,56.5123738 52.9365059,55.164858 C52.6907607,54.5807729 52.5078618,53.9983035 52.4474326,53.416642 L52.9365059,52.8947624 L53.1194048,52.6798707 C53.6084781,52.8026659 53.8832294,52.6798707 54.2812561,52.8026659 L54.1579806,53.5394372 C54.4021144,54.0588932 55.0740866,53.9692204 55.2279796,54.1824963 C56.542918,54.3359903 57.5831053,55.0711458 58.8053857,55.0711458 C59.0801369,55.2254477 59.3548881,55.3781338 59.6602568,55.500929 C60.9131547,56.0518917 62.3803746,56.3895786 63.4189504,56.9098425 C63.999876,56.7272654 64.2141981,56.9098425 64.6734597,56.7272654 C65.1319156,56.1439882 65.4066668,55.193941 65.7434587,54.5492662 L65.8038878,54.4579776 L66.6281415,53.8149185 L67.0253625,54.0588932 C67.148638,54.7956645 66.3533903,54.9790494 66.4758601,55.6237242 C67.3017252,55.684314 68.0655498,55.7142049 68.7987569,55.684314 C69.3498708,55.684314 69.8679501,55.6536152 70.4198697,55.6237242 C70.7252384,55.3781338 70.908943,55.1317356 71.0902305,54.9184597 C71.3045526,54.6429783 71.4584455,54.3973879 71.7331968,54.3359903 C72.80239,53.079763 72.9562829,51.1481621 73.7201074,49.6770432 C73.8425772,48.4523226 74.1487516,47.2566851 74.4533146,46.0610475 C75.002817,43.9767605 75.6143601,41.8940891 75.6747893,39.7177057 L75.6747893,39.7177057 Z M46.3956539,50.505103 L46.4560831,50.4138145 L46.638982,50.2280059 L46.6704051,50.2280059 L46.638982,50.2595126 C46.5181237,50.812091 46.7622575,51.4236435 46.4867005,52.0368116 L46.4560831,51.9140164 C46.3352248,51.4858489 46.1209027,50.9025717 46.3956539,50.505103 L46.3956539,50.505103 Z M46.6704051,53.5394372 L46.638982,53.4772317 L46.4867005,52.8026659 C46.5495468,52.8026659 46.609976,52.7719671 46.638982,52.8026659 C46.9757738,52.8341726 46.6704051,53.3544365 46.6704051,53.5394372 L46.6704051,53.5394372 Z M52.0502116,57.0027467 C52.0187884,56.8484449 51.9583593,56.7272654 51.9269361,56.6028544 C51.7440372,56.0203851 51.4676745,55.5615188 51.1324941,55.1010368 C50.918172,54.733459 50.6740383,54.3973879 50.4597162,53.9692204 C50.4597162,53.5394372 50.3372464,53.079763 50.7344674,52.8026659 L51.0092186,52.8656793 C51.0092186,53.4473408 51.0092186,53.9377137 51.1324941,54.4886765 C51.1929233,54.733459 51.286387,54.9790494 51.4072454,55.2545308 L51.7754604,55.6237242 C51.7754604,55.8054935 51.8358895,55.9896863 51.9269361,56.174687 C52.0187884,56.3273731 52.1106408,56.5123738 52.2032988,56.7272654 L52.0502116,57.0027467 Z M62.2579049,47.6549616 C61.373222,47.7785647 60.4845105,47.930443 59.6602568,48.1146358 C57.3985949,48.5735021 55.1981678,49.1866703 52.9365059,49.737633 C52.6013255,49.8313451 52.263728,49.9234415 51.9269361,49.9840312 C51.6819966,50.044621 51.4072454,50.1383331 51.1324941,50.1989228 C50.5209511,50.351609 49.8795963,50.4744042 49.2382415,50.6270903 C48.9941077,50.6577891 48.7805913,50.7199946 48.5348461,50.7498856 L48.4744169,50.7498856 L47.9539204,51.2402585 L47.6791692,50.505103 C47.9837322,50.4138145 48.2584834,50.351609 48.5348461,50.2595126 C48.7805913,50.1989228 48.9941077,50.1383331 49.2382415,50.0761276 C49.8481731,49.8919348 50.4927508,49.737633 51.1324941,49.5243571 L51.9269361,49.3102733 C52.263728,49.2181769 52.6013255,49.1260805 52.9365059,49.034792 C55.1377387,48.4208159 57.4292123,47.8391544 59.6602568,47.5321664 C60.607786,47.4093712 61.5545095,47.3172748 62.5342675,47.3172748 L62.2579049,47.6549616 Z M62.5342675,43.855581 C62.1370466,43.9468695 62.0137711,44.3443382 61.373222,44.4687492 C60.8213024,44.8363269 60.1807533,45.3872896 59.7811151,46.1216373 C59.7521091,46.1531439 59.720686,46.1838427 59.6602568,46.2153494 C59.3855056,46.5199138 59.1091429,46.9496971 58.6514928,47.1023832 L58.6514928,46.7663121 L58.9278554,46.0004578 C59.1421775,45.6312643 59.3855056,45.2951932 59.6602568,44.9882052 C60.0574778,44.5293389 60.5175451,44.1916521 61.2193291,43.9468695 C61.4940803,43.855581 61.373222,43.241605 61.8622953,42.9661236 L62.686549,43.1188097 L62.8090188,43.4863875 L62.5342675,43.855581 Z" id="Fill-1070" fill="#FFFFFF"></path>
                    <path d="M66.7511753,27.4595934 L66.0792031,26.6622324 C65.9559276,26.6315336 65.864881,26.6016427 65.7440227,26.5709439 C65.0092041,26.3560522 64.3992725,26.3261613 63.6958771,26.5394372 L63.6958771,27.3052915 C64.5201308,27.7035681 65.1614856,28.3175441 65.7440227,28.991302 C66.3225311,29.6650599 66.8446391,30.4018312 67.3022892,31.046506 L67.6688928,30.9212872 C68.0661138,30.4018312 67.3941415,29.788663 67.5166113,29.3895786 C67.1483963,28.7473273 66.7511753,28.1333513 66.7511753,27.4595934" id="Fill-1072" fill="#FFFFFF"></path>
                    <path d="M59.6608208,26.2641174 C57.3693472,25.7131547 55.0448389,25.3754679 52.9370699,25.9264306 C52.812183,25.9571294 52.6913247,25.9886361 52.6010838,26.0201427 C52.6010838,26.5080921 52.7517538,27.0000808 52.9370699,27.4597549 C53.0265051,27.7037296 53.151392,27.979211 53.2722503,28.1941026 C53.6090421,28.4711997 54.1585446,28.9914636 54.2810144,29.2354383 L54.4026784,29.6652215 L54.4026784,30.0327992 C54.2810144,30.7687626 53.8837934,31.0458597 53.8837934,31.5960145 L53.6090421,31.7810152 L53.2722503,31.9644002 C53.6090421,32.4240743 54.0062631,32.975037 54.2810144,33.4961088 L54.2810144,33.8951932 C53.6380481,33.955783 53.4245318,33.1915444 52.9370699,33.0057358 C52.8766408,32.975037 52.783177,32.975037 52.7227478,32.975037 C52.6010838,34.6917463 52.0797816,36.3462502 51.9258887,37.9094655 C51.8968827,38.307742 51.8968827,38.7068264 51.9258887,39.105103 L52.2022514,39.105103 C52.2022514,38.61473 52.4479966,38.0928504 52.6010838,38.0015619 C52.7227478,37.9716709 52.8436061,37.9094655 52.9370699,37.8803824 C53.3342909,37.6945739 53.4551492,37.4505992 53.7299005,37.3585028 C54.1585446,36.8075401 54.5557656,36.4383466 54.5557656,35.8267941 C54.4026784,35.2742157 54.5557656,34.6311566 54.4026784,34.23288 L54.8305168,34.1706746 C54.2810144,33.7110004 54.4026784,32.8538575 54.0062631,32.5783762 L54.2810144,32.2398815 C55.0746506,32.5783762 54.9537923,33.4961088 55.5032948,33.4961088 C55.8707041,33.955783 56.1454553,34.6311566 56.3895891,34.9987343 C56.6659518,36.1628652 56.2687308,37.0830214 56.2687308,38.0928504 L56.6659518,38.1849468 C57.3363126,38.0928504 57.4902055,37.7260805 57.856809,37.5418877 C58.5303927,36.1628652 57.9792788,34.9987343 58.1315603,33.7110004 L58.9284194,33.8951932 C59.2031707,34.9987343 58.3764998,36.2856604 58.9284194,37.3585028 C59.1717475,37.2647906 59.4174928,37.1436111 59.6608208,37.0515147 C61.800013,36.1628652 63.8167354,35.1514205 65.7440227,34.1407836 C66.3225311,33.8346035 66.9340742,33.5276155 67.5166113,33.2206274 L67.7913625,32.8538575 C67.1193903,31.9644002 66.4450009,31.0757506 65.7440227,30.2783897 C65.2219148,29.6652215 64.6724123,29.08356 64.0914867,28.593187 L64.0004401,28.1941026 C63.084334,27.8580315 62.6863073,27.4597549 62.0127236,26.9378753 C61.2198931,26.6939006 60.4544571,26.479009 59.6608208,26.2641174" id="Fill-1074" fill="#FFFFFF"></path>
                    <path d="M51.4075677,30.4017504 L51.9264527,30.9220143 L52.0505339,31.0464252 C52.3252851,30.9842197 52.6306538,31.0464252 52.9368282,31.0149185 C53.2115794,30.9842197 53.4557132,30.8606167 53.5483713,30.4017504 L53.5483713,29.2376195 C53.3638609,29.0833176 53.1495388,28.9912212 52.9368282,28.9306315 C52.6000364,28.868426 52.2334328,28.8385351 51.9264527,28.8385351 L51.5614606,29.2376195 C51.4075677,29.7885822 51.4075677,30.0325569 51.4075677,30.4017504" id="Fill-1076" fill="#FFFFFF"></path>
                    <path d="M51.6823995,26.2641174 C51.6219703,26.662394 51.8048692,26.9087922 51.9257275,27.1842736 C52.0191913,27.3676585 52.1110436,27.5825502 52.0506145,27.8580315 L52.2028959,27.5825502 C51.9257275,27.0614784 52.1730842,26.8150801 51.9257275,26.4168036 L51.9257275,26.3869126 L51.6823995,26.2641174 Z" id="Fill-1078" fill="#FFFFFF"></path>
                    <path d="M51.0097827,27.0609129 C50.3378104,27.2152148 50.2161464,27.5827925 49.7883079,27.7346708 L49.2388055,27.7346708 L49.0244834,27.7346708 L48.6264567,27.3048876 L48.5354101,27.3048876 C48.0463368,27.2152148 47.7715855,27.2152148 47.4654111,27.2152148 C47.3735588,27.2152148 47.2825122,27.2442978 47.1906599,27.2758045 C47.0681901,27.3048876 46.9763378,27.3679009 46.8844855,27.4301064 C46.7934389,27.4591894 46.7305926,27.5197792 46.639546,27.5827925 C46.5791168,27.6433823 46.5170762,27.7055877 46.4558413,27.7346708 C46.3043656,27.8889727 46.1520841,28.0731655 45.9981912,28.194345 L46.4558413,28.5320318 L46.639546,28.654827 L46.7934389,28.7469234 L46.8844855,28.7469234 C46.9763378,28.7760065 47.0988076,28.7760065 47.1906599,28.7760065 C47.7087392,28.7760065 48.0769542,28.654827 48.5354101,28.7760065 C48.6264567,28.8075131 48.6884973,28.8390198 48.747315,28.8390198 L49.2388055,28.8390198 C49.9413951,28.8390198 50.6746023,28.9908981 51.1322524,28.6863336 C51.1926816,28.654827 51.2547222,28.6241282 51.2861453,28.5942372 L51.4070036,27.8582739 L51.1322524,27.3363942 L51.0097827,27.0609129 Z" id="Fill-1080" fill="#FFFFFF"></path>
                    <path d="M49.0244834,26.9382793 C49.0849126,26.9067726 49.1469532,26.9067726 49.2388055,26.9067726 C49.5739859,26.8776895 49.9712069,27.0004847 50.0630592,26.6627979 C49.420093,25.0082941 50.3378104,23.1994884 50.0630592,21.6984785 L49.6964556,21.5441767 C49.5135567,21.7905749 49.3596638,22.0660563 49.2388055,22.310031 C49.0559066,22.587128 48.9020136,22.8626094 48.7481207,23.077501 C48.6562684,23.2616938 48.5958392,23.4450788 48.5354101,23.5977649 C48.2590474,24.4557156 48.2590474,25.3144742 48.5354101,26.0496297 C48.6562684,26.3873165 48.8101613,26.6627979 49.0244834,26.9382793" id="Fill-1082" fill="#FFFFFF"></path>
                    <path d="M46.4871839,26.6629595 L46.6394654,26.6314528 L46.8844049,26.5401643 L47.1905793,26.4480679 L47.8021224,26.2646829 C47.6796526,24.8848526 47.8021224,23.1996499 47.3428608,22.0953009 L47.1905793,22.0953009 L46.9448341,22.0953009 L46.8844049,22.1583143 C46.7933583,22.2811095 46.730512,22.372398 46.6394654,22.4943854 C46.5790363,22.5872896 46.5186071,22.6777703 46.4557608,22.7698667 C46.2414387,23.1390602 46.0585398,23.5058301 45.9981106,23.996203 C45.8442177,24.8541538 46.2124327,25.8348997 46.4557608,26.5401643 L46.4871839,26.6629595 Z" id="Fill-1084" fill="#FFFFFF"></path>
                    <path d="M46.4568888,29.7578834 C46.5173179,29.7893901 46.5793585,29.7893901 46.6397877,29.7893901 C46.73164,29.8200889 46.7936806,29.8200889 46.8855329,29.8200889 C46.9757738,29.8499798 47.099855,29.8499798 47.1892902,29.8499798 C47.6493575,29.9105695 48.1384308,29.9105695 48.5356518,30.0018581 C48.6275041,30.0018581 48.6895447,30.0333648 48.7483624,30.0333648 L49.2390472,30.0333648 L50.3380521,30.0333648 L50.2155824,29.7893901 C49.8787905,29.7263767 49.5436101,29.6972937 49.2390472,29.665787 C48.9941077,29.6350882 48.7797856,29.6350882 48.5356518,29.6051973 C48.0763902,29.5744985 47.6179343,29.5429918 47.1892902,29.5139087 C47.099855,29.482402 46.9757738,29.482402 46.8855329,29.4508954 C46.7936806,29.4508954 46.73164,29.4508954 46.6397877,29.4201966 C46.5793585,29.4201966 46.5173179,29.3903056 46.4568888,29.3903056 C46.1200969,29.3281002 45.8139226,29.2360038 45.4787422,29.1132086 L45.6310236,29.3903056 C45.8759632,29.5744985 46.1507144,29.6972937 46.4568888,29.7578834" id="Fill-1086" fill="#FFFFFF"></path>
                    <path d="M68.7988374,32.2706611 C69.1670524,32.0266864 69.6545143,31.7487815 69.6545143,31.3214218 L69.2879108,31.0459405 C69.1050118,31.0459405 68.9527304,31.0459405 68.7988374,31.0750236 C68.4322339,31.137229 68.1268652,31.2899152 68.0664361,31.5969032 L67.944772,31.9636731 L68.1889058,32.3021678 L68.7384083,32.3021678 L68.7988374,32.2706611 Z" id="Fill-1088" fill="#FFFFFF"></path>
                    <path d="M62.685985,26.3865895 L62.9293131,26.2032045 C62.685985,25.4058435 61.7392616,24.8847718 61.372658,24.4566043 C60.8215441,24.2707957 60.3026591,24.2707957 60.1801893,23.8119294 C60.0262964,23.7820385 59.8450089,23.7513397 59.6596928,23.7214488 C58.8354391,23.5364481 57.9491448,23.4152686 57.0628505,23.6285445 L56.6656295,23.9953144 L56.3884611,24.7320856 C57.5205006,24.8847718 58.621117,25.0988555 59.6596928,25.4058435 C60.6990743,25.6813249 61.7078384,26.0190117 62.685985,26.3865895" id="Fill-1090" fill="#FFFFFF"></path>
                    <path d="M51.1328164,25.7427225 L51.1328164,25.7112158 C51.3761445,25.5593376 51.6508957,25.4357345 51.9264527,25.314555 C52.2334328,25.2232665 52.5686132,25.1295543 52.9368282,25.0689646 C53.6386121,24.9162784 54.3710135,24.8847718 55.0744089,24.8847718 L55.5030531,24.0882187 C54.6787994,23.9355325 53.7610819,23.6891342 52.9368282,23.5978457 C52.5686132,23.537256 52.2334328,23.537256 51.9264527,23.566339 C51.6508957,23.6285445 51.3761445,23.6891342 51.1328164,23.8127373 C50.6139314,24.2716036 50.7355954,25.1295543 50.3375687,25.4066514 L50.4608442,25.7427225 L51.1328164,25.7427225 Z" id="Fill-1092" fill="#FFFFFF"></path>
                    <path d="M41.7766908,103.722403 C49.3706216,103.75379 55.568236,97.5380907 55.568236,89.8318837 C55.568236,82.1563754 49.3706216,75.8194964 41.7766908,75.7904134 C34.1811486,75.7298236 27.9835342,81.9729904 27.9835342,89.6493066 C27.9835342,97.3555137 34.1811486,103.661694 41.7766908,103.722403" id="Fill-1094" fill="#273766"></path>
                    <path d="M47.8528829,101.71232 C50.9194612,100.099017 53.2915071,97.3256227 54.3856777,93.9455231 C53.3205131,94.7356133 52.2577656,95.4069476 51.1652064,95.8326915 C50.4964571,97.6600781 49.2806225,99.3363942 47.7006014,100.857601 C47.7610306,101.131466 47.7924537,101.436839 47.8528829,101.71232" id="Fill-1096" fill="#FFFFFF"></path>
                    <path d="M54.8401049,91.9942103 C54.9609633,91.2937929 55.0213924,90.5626767 55.0213924,89.8323684 C55.0213924,89.0996365 54.9609633,88.370136 54.8401049,87.6697186 C54.6588175,87.7908981 54.4751128,87.9136933 54.2607907,88.0356806 C54.6588175,89.3460347 54.8086818,90.6854719 54.8401049,91.9942103" id="Fill-1098" fill="#FFFFFF"></path>
                    <path d="M54.7794341,87.2120641 C54.1106847,83.8618554 52.1970947,80.9373906 49.555132,78.9581258 C49.1885284,79.0793052 48.824342,79.1714016 48.4609614,79.2925811 C48.3384916,80.1763835 48.2176333,81.0278713 48.0959693,81.9132893 C49.4012391,83.5564831 50.4349805,85.1722095 51.3462522,86.817019 C52.1970947,87.1199677 53.0785547,87.4560388 53.9269801,87.7614111 C54.2001199,87.5796418 54.5062943,87.3938333 54.7794341,87.2120641" id="Fill-1100" fill="#FFFFFF"></path>
                    <path d="M49.128341,78.6533998 C47.3356093,77.4036354 45.2407319,76.6135452 42.9911558,76.3986536 L42.9911558,77.252565 C44.9055515,77.3131547 46.6684714,77.8907769 48.3089216,78.9878551 C48.5820614,78.8666756 48.8552012,78.7454962 49.128341,78.6533998" id="Fill-1102" fill="#FFFFFF"></path>
                    <path d="M42.6272111,76.3681163 C42.3226481,76.3366097 42.0495083,76.3366097 41.7763685,76.3366097 C38.4664622,76.3075266 35.4272784,77.5257843 33.0882671,79.5664467 C33.6659699,79.659351 34.2122495,79.7514474 34.7585291,79.8726269 C37.0072994,78.8660294 38.0394294,78.8054396 40.2277707,78.8660294 C41.018184,78.3489969 41.8077917,77.8311566 42.6272111,77.3125084 L42.6272111,76.3681163 Z" id="Fill-1104" fill="#FFFFFF"></path>
                    <path d="M28.834699,86.7557022 C28.6219884,87.6710112 28.5301361,88.6436785 28.5301361,89.650276 C28.5301361,91.0818096 28.7428467,92.4826444 29.1698794,93.7614919 C29.1996912,93.7614919 29.2303086,93.7614919 29.2907378,93.7324088 C28.834699,91.5689511 28.834699,89.4370001 29.5638775,87.2719268 C29.3205495,87.0901575 29.0780271,86.9083883 28.834699,86.7557022" id="Fill-1106" fill="#FFFFFF"></path>
                    <path d="M33.8174456,100.402127 C35.5787542,101.773071 37.7050548,102.715848 40.01506,103.02122 C39.9852483,102.807944 39.9546309,102.563969 39.8942017,102.350693 C37.7050548,102.107527 35.6391833,101.529097 33.8778748,100.280948 C33.8488688,100.341538 33.8174456,100.370621 33.8174456,100.402127" id="Fill-1108" fill="#FFFFFF"></path>
                    <path d="M47.609152,82.2168843 C48.9160332,83.7090077 49.9795864,85.3247341 50.9504815,86.9994345 C50.6773417,88.4010772 50.1914913,89.8019119 49.4308896,91.2019389 C47.5777288,91.3255419 45.7261794,91.4758045 43.8730186,91.5994076 C42.9625526,90.1064764 42.0496695,88.6127373 41.1077803,87.120614 C41.7765297,85.5065033 42.4146616,83.8915848 43.0519878,82.3089807 C44.6320088,81.8509223 46.1814124,81.7297428 47.609152,82.2168843" id="Fill-1110" fill="#FFFFFF"></path>
                    <path d="M40.2274484,79.2925003 C41.0178618,80.2078093 41.8074694,81.089996 42.5970771,82.0036892 C41.9283277,83.6186078 41.2910015,85.2327185 40.6528696,86.8775279 C39.1034661,87.3937525 37.5532567,87.9430995 36.0352763,88.4908308 C34.9725288,87.3646694 33.9387874,86.2360846 32.9066574,85.1107311 C32.997704,83.6484987 33.4215138,82.0949778 34.6075367,80.2974822 C36.2777986,79.6285714 38.1011478,79.2004039 40.2274484,79.2925003" id="Fill-1112" fill="#FFFFFF"></path>
                    <path d="M49.371105,91.811714 C49.8585669,92.8482025 50.4346582,94.0058705 50.8906969,95.0407432 C50.223559,97.0822135 48.9166778,98.8797092 47.3366567,100.585916 C45.8170649,100.49382 44.2676613,100.37264 42.7480694,100.280544 C42.233213,98.8175037 41.7167451,97.3560792 41.1688541,95.9245456 C42.1107432,94.6456981 43.0526323,93.3959338 43.9945215,92.1170863 C45.8170649,92.054073 47.5493674,91.8723038 49.371105,91.811714" id="Fill-1114" fill="#FFFFFF"></path>
                    <path d="M35.6096133,88.7654235 C34.5460601,87.6384543 33.5131244,86.4807863 32.4495712,85.354625 C29.5642804,86.6649791 28.9261485,89.1330012 29.6247096,93.2426013 C30.081554,94.4624748 30.8711616,95.4367578 32.2682838,96.0450788 C33.4228835,95.2234819 34.5774833,94.401885 35.7304716,93.5786724 C35.7014656,91.9944527 35.6410365,90.3795341 35.6096133,88.7654235" id="Fill-1116" fill="#FFFFFF"></path>
                    <path d="M40.5915542,95.8635519 C38.9825272,95.2826983 37.4935527,94.7365827 35.9135317,94.1888515 C34.8193611,94.8876532 33.7566136,95.6211929 32.6930605,96.3191868 C33.1184817,99.7009021 35.6702036,101.436192 40.0138515,102.017046 C40.714024,101.406301 41.4109736,100.888461 42.1111461,100.28014 C41.6551074,98.7872088 41.0475929,97.3265922 40.5915542,95.8635519" id="Fill-1118" fill="#FFFFFF"></path>
                    <path d="M38.7387157,74.9058839 C33.5442253,61.748216 29.8685211,47.3706746 27.8324613,26.9616265 C30.6275113,25.9558368 32.6933827,25.1948297 36.2474229,24.4637135 C38.526005,46.7922445 42.8100294,62.4785243 48.8553623,76.1241416 C48.5822225,75.9722634 48.3090827,75.850276 48.0045198,75.7290965 C46.8201083,75.241955 45.6953203,74.9390063 44.4190565,74.6926081 C43.6600662,74.6005116 42.8994646,74.5399219 42.1114684,74.5108388 C40.9568686,74.5399219 39.862698,74.663525 38.7387157,74.9058839" id="Fill-1120" fill="#FFFFFF"></path>
                    <path d="M56.6627289,89.9842467 C56.9358687,90.3792918 57.2090085,90.7767605 57.4837597,91.1419146 C56.9672919,91.9029218 56.5418706,92.6348458 56.024597,93.3950451 C56.2977368,92.5734482 56.3895891,91.7502356 56.5418706,90.868049 C56.6022997,90.5941834 56.6313057,90.289619 56.6627289,89.9842467" id="Fill-1122" fill="#FFFFFF"></path>
                    <path d="M46.7284171,105.123603 C44.754398,107.255554 42.869814,108.900364 40.7435134,110.881244 C37.3707607,107.742696 34.7296036,105.031507 31.8112782,100.797496 C32.5718799,101.499529 33.3622932,102.10785 34.2727592,102.68628 C34.9108911,103.052242 35.549023,103.386697 36.2177724,103.692069 C37.4311898,104.179211 38.5567836,104.48216 39.8322417,104.726942 C40.5912319,104.818231 41.3502221,104.881244 42.1108238,104.881244 C43.4475167,104.848122 44.6335397,104.697051 45.9089978,104.423186 C45.9694269,104.392487 46.0596678,104.36098 46.1217084,104.36098 C46.5471297,104.789148 46.3029959,104.697051 46.7284171,105.123603" id="Fill-1124" fill="#FFFFFF"></path>
                    <path d="M27.5896167,93.944796 C19.5388415,79.2917733 13.8278832,60.4677528 11.2761613,32.4752929 C13.8883124,31.1358557 16.8356438,30.3732328 19.5388415,29.5516359 C21.5740955,51.2387236 25.2804171,66.3473812 30.7794705,79.6884341 C30.2017677,80.3589605 29.6844941,81.0593779 29.1696377,81.8518917 C28.8046456,82.4909115 28.4710767,83.1307392 28.1673194,83.7996499 C27.710475,84.9888246 27.3769061,86.1174095 27.1641954,87.3946412 C27.0433371,88.187155 26.9812965,88.9182712 26.9812965,89.710785 C27.0119139,91.0203312 27.1641954,92.2062744 27.4687584,93.4875454 C27.4977644,93.637808 27.5291875,93.7904941 27.5896167,93.944796" id="Fill-1126" fill="#FFFFFF"></path>
                </g>
                <polygon id="Fill-1129" fill="#273766" points="6.96151951 77.4347381 9.08782013 73.0480409 9.84842179 74.9683318 10.7886995 77.3135586 12.0665747 80.2978053 13.7674541 83.8305911 15.8019024 87.7616534 18.2327659 92.0239397 19.6290823 94.2786859 20.9971985 96.4106369 23.2459688 99.6089673 25.5849801 102.716817 28.0448497 105.701064 30.3838609 108.474458 33.9999417 112.73836 35.4881104 114.443759 33.3618098 112.617181 30.9003288 110.606409 27.9239914 107.83463 24.5214269 104.301037 22.8205476 102.381554 20.9971985 100.250411 19.2044668 97.9948566 17.3819234 95.6496297 15.6810441 93.2131143 14.101023 90.6546116 11.7620118 86.6936583 9.93866266 83.7094116 8.66239886 81.3641847 7.81236204 79.6587855 7.08237782 77.8612899"></polygon>
                <polygon id="Fill-1130" fill="#273766" points="3.13361439 39.2677259 7.38782707 34.5772721 7.72139602 38.080167 8.23866961 42.0395045 8.87599579 47.0345227 9.84769664 52.7008752 11.0022964 58.8834523 11.6404283 61.991302 12.3994185 65.0369463 13.128597 68.1439882 13.9794396 71.1290427 14.7384298 73.3530901 15.5892723 75.6078363 17.2901517 79.9929177 19.2053531 84.1356402 20.9062324 87.8833176 22.6071118 90.9596607 23.8833756 93.4260671 25.1588337 95.5596338 24.5207018 94.7970109 23.0325331 92.5729635 20.9062324 89.1605493 18.1417999 84.5638077 16.7438721 81.9115928 15.2548976 79.0186347 13.6748766 75.9115928 12.2785602 72.7132624 10.7903915 69.302464 9.42227537 65.6775818 8.23866961 62.0833984 7.08326412 58.2452403 5.68694772 52.6087788 4.53073651 48.1009021 3.8926046 44.8104753 3.34632502 42.3440689 3.13361439 40.7598492 3.13361439 39.9075535"></polygon>
                <polygon id="Fill-1131" fill="#273766" points="48.2482507 110.179696 48.2482507 110.179696 49.4326622 109.203797 50.7081203 108.047745 52.4089996 106.342345 54.4160534 104.087599 56.7534532 101.315821 59.3067865 97.994695 62.0397959 94.28014 64.8042284 89.8934428 66.2923971 87.4577353 67.6911307 84.9897132 69.1792994 82.3383062 70.5764215 79.4453481 71.9437319 76.5830887 73.3416598 73.4736233 74.6163121 70.156537 75.8917702 66.8644944 77.04637 63.3615996 78.2323929 59.6470446 79.2959461 55.8080786 80.3586935 51.8479332 81.2095361 47.6753198 82.0595729 43.4098021 82.6977048 39.2670796 83.2149784 35.3085499 83.6395939 31.5923792 83.9747743 28.1815807 84.4001956 23.1550559 84.4904365 21.3260536 89.5938802 25.9260267 88.9573598 30.4032045 88.0138592 35.4297294 86.7375954 41.8271981 85.036716 49.0761546 84.0650152 52.9151205 82.9104154 56.8744581 81.7260039 60.8030968 80.3586935 64.7640501 78.95996 68.5707015 77.3823561 72.4096674 76.3188029 74.8461828 75.13278 77.3133971 72.7027222 81.7905749 70.3637109 85.9623805 67.7805659 89.680167 65.3521194 93.2129527 63.0114967 96.2892958 60.6740969 99.0626902 58.3648974 101.437 56.3280319 103.570567 54.3242011 105.366447 52.6217103 106.860186 51.1335416 108.139841 49.0072409 109.753144"></polygon>
                <g id="Group-1150" transform="translate(9.847133, 3.141861)" fill="#273766">
                    <path d="M7.23135584,16.9672277 C7.38202587,16.6917463 7.47468391,16.3879898 7.56492479,16.0535344 C7.65677711,15.5647772 7.6857831,15.0469369 7.59634795,14.4676989 C7.53591879,13.9514744 7.41264331,13.5548135 7.23135584,13.2195503 C7.04845692,12.8543961 6.77531713,12.5805305 6.44174818,12.3979534 C5.86404544,12.093389 5.0132029,12.1224721 3.91903229,12.4585432 C3.85860313,12.4884341 3.76675081,12.5199408 3.67731566,12.5490238 C2.58314505,12.9149859 1.51959188,13.2809479 0.45684443,13.675993 C0.304562953,15.4751043 0.244133796,17.2701764 0.212710634,19.0975629 C0.183704639,20.8966743 0.152281477,22.723253 0,24.5813384 C0.971700851,24.1240878 1.97482486,23.6684529 2.9787546,23.1796957 C3.03918376,22.6319645 3.06899547,22.0842332 3.09961291,21.536502 C3.12942463,20.987155 3.16004207,20.4394237 3.16004207,19.8892689 C3.43318186,19.7995961 3.67731566,19.7074997 3.91903229,19.5863202 L4.34445356,19.433634 C5.53047649,18.9763835 6.41032502,18.3074727 6.95821605,17.4228625 C7.07907436,17.2701764 7.17092668,17.1182981 7.23135584,16.9672277 M4.40649416,16.4784704 C4.2840244,16.6012657 4.13174292,16.723253 3.91903229,16.8444325 C3.79817397,16.935721 3.6458925,16.9963108 3.46299358,17.0577084 C3.37275271,17.0884072 3.22611128,17.0520533 3.22047123,17.1489969 C3.25189439,16.5390602 3.28090039,15.9606301 3.28090039,15.3515013 C3.34213527,15.3515013 3.37275271,15.3224182 3.43318186,15.2909115 C3.6168865,15.2303218 3.79817397,15.199623 3.91903229,15.1681163 C4.07131377,15.1390333 4.19217208,15.1390333 4.2840244,15.1681163 C4.46692332,15.2303218 4.58778163,15.3830079 4.61759335,15.6253669 C4.64901651,15.9307392 4.58778163,16.2361115 4.40649416,16.4784704" id="Fill-1132"></path>
                    <path d="M13.4892382,9.44311297 C12.8511063,9.62488219 12.182357,9.80745927 11.5442251,10.0223509 C11.0897978,10.1435304 10.6337591,10.2962165 10.1769147,10.417396 C9.53958851,12.2455904 8.99330892,14.1036758 8.5074585,15.9310623 C8.11104323,17.3625959 7.68642768,18.7941295 7.23119469,20.2571698 C7.10872493,20.6821058 6.9580549,21.1393564 6.83558514,21.5659082 L7.23119469,21.413222 C8.17147238,21.04726 9.11577868,20.7128046 10.0560564,20.3468426 C10.1769147,19.860509 10.3001902,19.3733674 10.4210485,18.8862259 C10.7852349,18.7626229 11.1800387,18.6414434 11.5442251,18.5202639 C11.848788,18.4281675 12.1219278,18.336879 12.4256851,18.2156995 C12.4869199,18.6414434 12.5175374,19.0679952 12.5473491,19.464656 C13.5496674,19.1600916 14.5229797,18.8240205 15.5236865,18.4895651 C15.2505467,16.9675508 14.8863604,15.4746196 14.4915565,13.9808806 C14.1273701,12.4588663 13.762378,10.9651272 13.4892382,9.44311297 M11.5442251,16.204928 L10.9979455,16.3568062 C11.1196095,15.7783762 11.2404679,15.1991383 11.3943608,14.6207082 C11.4233668,14.4074323 11.4547899,14.1642655 11.5152191,13.9202908 C11.5152191,13.8281944 11.5442251,13.7676047 11.5442251,13.6755083 L11.6360774,13.127777 L11.6360774,13.3725596 C11.6675006,13.4937391 11.6675006,13.6149185 11.6965066,13.7676047 C11.7279297,14.0414703 11.7883589,14.3775414 11.848788,14.8040932 C11.877794,14.8945739 11.877794,14.9567793 11.9092172,15.0173691 C11.9696464,15.3518244 12.0010695,15.6862798 12.0614987,16.0223509 C11.9092172,16.0829406 11.7279297,16.1443382 11.5442251,16.204928" id="Fill-1134"></path>
                    <path d="M64.1624708,0.152686145 C63.9795719,1.70539922 63.8289018,3.22902922 63.7370495,4.78255015 C63.6460029,6.30618015 63.5243389,7.82738656 63.3430514,9.38252323 C65.3774997,9.25972802 67.4127537,9.13774068 69.4190017,9.04806786 C69.4802366,8.61990036 69.5390543,8.19334859 69.6010949,7.79830349 C69.6317124,7.37175172 69.6921415,6.97509088 69.7219533,6.58004578 C68.6882118,6.60912885 67.6858935,6.64063552 66.6843809,6.66971859 C66.7141927,6.36676989 66.7448101,6.03231453 66.7448101,5.69543557 C67.6254643,5.6663525 68.5069243,5.63484583 69.3585726,5.60414703 C69.4190017,4.84313989 69.4488135,4.08213276 69.5092426,3.3195099 C68.6277826,3.3502087 67.7479341,3.38009964 66.8970916,3.4116063 C66.8970916,3.10623401 66.9269033,2.83398411 66.9575207,2.5269961 C67.867181,2.49791302 68.8106816,2.46640636 69.7533764,2.43732328 C69.7533764,2.04066245 69.8138056,1.64480948 69.8428116,1.21906557 C69.9048522,0.821596876 69.9652813,0.395045106 70.0265162,0 C68.0516913,0.0315066649 66.1074839,0.0605897401 64.1624708,0.152686145" id="Fill-1136"></path>
                    <path d="M49.7935451,6.73055069 C49.4599762,6.42679413 49.0627552,6.27491585 48.5164756,6.27491585 C49.1247958,6.1222297 49.5502171,5.84836408 49.7935451,5.48240205 C50.0666849,5.08735694 50.1875432,4.63010637 50.1271141,4.05086845 C50.0352618,3.22927158 49.7016928,2.61933486 49.0627552,2.28487949 C48.4866639,1.9795072 47.6970562,1.85832772 46.6649262,1.9795072 C46.5730739,2.01101387 46.4812216,2.01101387 46.3603633,2.04009694 C45.387051,2.16289215 44.4153501,2.34546923 43.444455,2.49815538 C43.2607504,4.11145819 43.1713152,5.69567793 43.0794629,7.24839101 C43.0190337,8.83261074 42.8957583,10.3861317 42.7442825,12.0010502 C44.0511637,11.7885822 45.358045,11.5454154 46.6649262,11.3305238 L46.9066429,11.3014407 C48.0612426,11.1172479 48.9410912,10.7537094 49.5808345,10.1429649 C50.1875432,9.53302814 50.460683,8.80352767 50.3696364,7.91972533 C50.3084016,7.40107715 50.1271141,7.00603205 49.7935451,6.73055069 M46.1476526,4.35624074 C46.268511,4.32473408 46.3917864,4.29484314 46.5416508,4.29484314 L46.6649262,4.26414434 C46.8147905,4.26414434 46.967072,4.29484314 47.0589243,4.35624074 C47.1797827,4.41683048 47.271635,4.56870877 47.271635,4.72139491 C47.300641,4.9346708 47.2112058,5.11724788 47.0589243,5.24004309 C46.967072,5.30063283 46.8462137,5.36122257 46.6649262,5.42181231 C46.5416508,5.45331897 46.3917864,5.48240205 46.2080818,5.51390871 C46.1476526,5.54299179 46.1186466,5.54299179 46.0558003,5.54299179 C46.0872235,5.14794668 46.1186466,4.75128585 46.1476526,4.35624074 M47.1193535,8.80352767 C47.0275012,8.89400835 46.8752197,8.95459809 46.6649262,9.01680355 C46.5126448,9.07739329 46.2999341,9.13798303 46.0872235,9.1694897 C45.9953712,9.1694897 45.9333306,9.19857278 45.8729014,9.19857278 C45.905936,8.71143126 45.9333306,8.22428975 45.9333306,7.73714824 C46.1186466,7.73714824 46.268511,7.70644944 46.4207924,7.6765585 C46.5126448,7.6458597 46.6020799,7.6458597 46.6649262,7.6458597 C46.8462137,7.6458597 46.9984952,7.6765585 47.0879303,7.70644944 C47.271635,7.79854585 47.3610701,7.95042413 47.3610701,8.16370001 C47.3924933,8.43756564 47.300641,8.65084152 47.1193535,8.80352767" id="Fill-1138"></path>
                    <path d="M51.402975,5.97124007 C51.3111227,7.55384408 51.2216876,9.10817288 51.0379829,10.6907769 C52.0701129,10.5695974 53.1038544,10.4484179 54.1375958,10.2957318 C54.319689,8.74301872 54.4405473,7.15879898 54.5315939,5.60366231 C54.5928288,4.05094924 54.7136871,2.4667295 54.9263978,0.913208563 C53.864456,1.00530497 52.8307146,1.12648445 51.7969731,1.24847179 C51.6156857,2.83430726 51.4634042,4.41691127 51.402975,5.97124007" id="Fill-1140"></path>
                    <path d="M60.36615,0.152686145 C59.6055483,0.213275885 58.9069872,0.456442709 58.2696611,0.821596876 C57.6315291,1.18755891 57.0852496,1.67470042 56.6582169,2.3161438 C56.3246479,2.83398411 56.0805141,3.4116063 55.9306498,4.02154302 C55.8073743,4.62986401 55.8073743,5.30039047 55.8686092,5.97091692 C55.9596558,6.60912885 56.141749,7.21906557 56.4148888,7.73771375 C56.6880286,8.285445 57.052215,8.74269557 57.4792477,9.07715094 C57.8442398,9.4116063 58.2696611,9.62488219 58.7547058,9.77756833 C59.2099387,9.90036354 59.7264066,9.96095328 60.2436802,9.90036354 C60.51682,9.86966474 60.7601481,9.83815807 61.0026704,9.74686953 C61.2758102,9.65638885 61.5207497,9.56429245 61.7938895,9.44311297 C61.8841304,8.86387505 61.9445595,8.3161438 61.9759827,7.73771375 C62.0364119,7.18836677 62.0670293,6.64063552 62.1274585,6.09290427 C61.8841304,6.27467349 61.6093792,6.42735963 61.3362394,6.54853911 C61.0630996,6.66971859 60.8205772,6.76343073 60.5474374,6.76343073 C60.0930102,6.82402047 59.7264066,6.70122526 59.4226494,6.45644271 C59.1495096,6.18257708 58.9674164,5.81742292 58.9069872,5.36098021 C58.8465581,4.78255015 58.9674164,4.29540864 59.2719793,3.89874781 C59.5451191,3.50289484 59.9995464,3.28961896 60.51682,3.22902922 C60.7899598,3.19833042 61.0630996,3.22902922 61.3668568,3.28961896 C61.641608,3.38009964 61.9445595,3.50289484 62.2781285,3.65558099 C62.2781285,3.13774068 62.3095517,2.6190925 62.3699808,2.10286791 C62.43041,1.58421974 62.4908391,1.06637943 62.5512683,0.547731251 C62.2176993,0.395045106 61.8841304,0.273865625 61.5207497,0.213275885 C61.1541462,0.152686145 60.7899598,0.12117948 60.36615,0.152686145" id="Fill-1142"></path>
                    <path d="M32.1124571,6.66988017 C31.7168476,6.12214892 31.170568,5.72710381 30.5010129,5.51382793 C30.1988671,5.42173152 29.8032576,5.39264844 29.3174072,5.42173152 C29.1941317,5.45323819 29.0442674,5.45323819 28.8919859,5.48232126 C28.4963763,5.51382793 28.0411433,5.60350074 27.5536815,5.72710381 C26.7946913,5.90887303 26.0365068,6.09225798 25.2759051,6.27483506 C25.0938119,7.8897536 25.0027653,9.50386428 24.9415304,11.088084 C24.8811013,12.6723038 24.7916661,14.2856066 24.6079615,15.8997172 C25.4902272,15.6864414 26.3700757,15.4440824 27.2515357,15.2308065 C27.8582444,15.0781204 28.404524,14.9254342 28.8919859,14.743665 C29.2255548,14.6200619 29.5607352,14.4681837 29.833875,14.3154975 C30.5010129,13.9810421 31.0787157,13.5245994 31.5959892,12.9768682 C32.1124571,12.3984381 32.4774492,11.7279117 32.7191659,10.9959876 C32.9318765,10.2648714 32.9923056,9.50386428 32.9004533,8.74285714 C32.8110182,7.8897536 32.5378784,7.21922714 32.1124571,6.66988017 M29.4688829,11.3013599 C29.3174072,11.5146358 29.1046965,11.696405 28.8919859,11.8490912 C28.6188461,12.0017773 28.3142831,12.1536556 27.9500968,12.2142453 L27.920285,12.2142453 C27.920285,11.6059243 27.9500968,10.9652888 27.9807142,10.3254612 C28.0105259,9.71714016 28.0411433,9.07731251 28.0709551,8.43748485 L28.1313842,8.40678605 C28.404524,8.34619631 28.6478521,8.34619631 28.8919859,8.40678605 C29.0442674,8.43748485 29.1651257,8.49807459 29.2875954,8.590171 C29.5905469,8.80344688 29.7718344,9.13790225 29.833875,9.62504376 C29.9241159,10.2648714 29.8032576,10.8433015 29.4688829,11.3013599" id="Fill-1144"></path>
                    <path d="M38.6434793,5.72686145 L38.5532384,8.1011714 C38.4911978,8.95427494 38.4307687,9.47292312 38.3099104,9.71689781 C38.218058,9.93017369 38.0367706,10.0828598 37.7620193,10.1119429 C37.5799261,10.1741484 37.4284504,10.1119429 37.2761689,10.0222701 C37.185928,9.93017369 37.0948814,9.74678874 37.0634583,9.50362192 L37.0634583,9.13765989 C37.0320351,8.98578161 37.0634583,8.68040932 37.0948814,8.22477447 C37.1254989,7.43226067 37.1553106,6.66963781 37.2157397,5.90863067 C37.2463572,5.14762354 37.3365981,4.38500067 37.4284504,3.59329474 C36.3963204,3.80818635 35.3625789,4.02146223 34.3594549,4.23473812 C34.2684083,4.90364885 34.1781674,5.60406624 34.14755,6.2745927 C34.0863151,6.94511916 34.0573091,7.61645348 34.025886,8.31606301 C33.9952685,8.8936852 33.9952685,9.35093577 33.9952685,9.68539114 C33.9952685,10.0222701 33.9952685,10.2961357 34.025886,10.5086037 C34.0863151,11.0272519 34.2079791,11.4538037 34.4206898,11.8488488 C34.6035887,12.2148108 34.8767285,12.5193753 35.2102974,12.7625421 C35.8790468,13.2512993 36.7903185,13.3409721 37.9143008,13.1276962 C38.5830501,13.0065168 39.1599472,12.7326511 39.7086439,12.3666891 C40.2549235,11.9700283 40.6779276,11.4828868 41.0114966,10.8745658 C41.163778,10.5700013 41.317671,10.2040393 41.4095233,9.74678874 C41.4989584,9.29034603 41.5601933,8.71191598 41.6222339,8.04058166 C41.6512399,7.15839505 41.6826631,6.2745927 41.7430922,5.39240609 C41.8035214,4.53930254 41.8639505,3.6555002 41.9848088,2.74019119 C40.9510674,2.924384 39.9189374,3.13765989 38.8876131,3.31942911 C38.7957608,4.14264171 38.7039085,4.93515551 38.6434793,5.72686145" id="Fill-1146"></path>
                    <path d="M23.3619123,11.5454962 C23.6664752,10.9646425 23.788945,10.265033 23.6970927,9.50402585 C23.5746229,8.59033257 23.2112422,7.98039585 22.5731103,7.67663929 C21.9341727,7.37207486 21.0833302,7.37207486 19.990771,7.61604955 C19.9303418,7.64594049 19.8384895,7.67663929 19.7780604,7.67663929 C18.7153129,7.95050491 17.6211423,8.25426148 16.5575891,8.55882591 C16.3746902,10.2036354 16.2844493,11.8492527 16.2240202,13.4625555 C16.163591,15.0782819 16.1015504,16.7230914 15.9194572,18.3679009 C16.9225812,18.0625286 17.9248995,17.7595799 18.9280235,17.4542076 C19.0174587,16.8442709 19.0778879,16.265033 19.109311,15.656712 C19.1399285,15.0782819 19.1697402,14.499044 19.2011633,13.890723 C19.413874,14.4069476 19.6257789,14.9562946 19.8384895,15.4749428 C19.8989187,15.5961223 19.9303418,15.7173017 19.990771,15.8699879 C20.1430525,16.2359499 20.2639108,16.630995 20.4161923,17.0276559 C21.4499337,16.7521745 22.4506406,16.4492258 23.484382,16.1753602 C23.2716714,15.6260132 23.0283433,15.0782819 22.7842095,14.5596338 C22.5424929,14.0119025 22.2693531,13.4940622 21.9962133,12.946331 C22.602922,12.6102599 23.0887725,12.1538172 23.3619123,11.5454962 M20.4766214,11.4533998 C20.3557631,11.5753871 20.2034816,11.6965666 19.990771,11.7878551 C19.8384895,11.8799515 19.6870138,11.9405413 19.5049206,11.9704322 C19.413874,12.001131 19.3526391,12.0310219 19.2615925,12.0310219 C19.2922099,11.422701 19.3220217,10.7828733 19.3526391,10.1745523 C19.413874,10.1430456 19.4743031,10.1123468 19.5347323,10.1123468 C19.7160198,10.0517571 19.8699127,10.0517571 19.990771,10.0218662 C20.1430525,10.0218662 20.2639108,10.0218662 20.3847691,10.0824559 C20.5668623,10.1430456 20.6595203,10.3256227 20.6893321,10.5994884 C20.7497612,10.9355594 20.6595203,11.2385081 20.4766214,11.4533998" id="Fill-1148"></path>
                </g>
            </g>
        </g>
    </g>
</svg>