<?xml version="1.0" encoding="UTF-8"?>
<svg width="25px" height="16px" viewBox="0 0 25 16" version="1.1" xmlns="http://www.w3.org/2000/svg" xmlns:xlink="http://www.w3.org/1999/xlink">
    <title>ticket-svgrepo-com</title>
    <g id="1.-Design" stroke="none" stroke-width="1">
        <g id="HP-2" transform="translate(-1237.000000, -864.000000)">
            <g id="ZÁPASY" transform="translate(0.000000, 662.000000)">
                <g id="Další-zápas" transform="translate(960.000000, 0.000000)">
                    <g id="ticket-svgrepo-com" transform="translate(277.000000, 202.000000)">
                        <path d="M7.61748047,0 L0.987109375,0 C0.441943359,0 0,0.442992438 0,0.989452561 L0,4.77331571 C0,5.32511074 0.450634766,5.75821648 1.00112305,5.76164256 C2.22602539,5.76922889 3.22021484,6.77037907 3.22021484,8 C3.22021484,9.22962093 2.22602539,10.2308201 1.00112305,10.2383574 C0.450634766,10.2418325 0,10.6749382 0,11.2266843 L0,15.0105474 C0,15.5569586 0.441943359,16 0.987109375,16 L7.6175293,16 C7.79921875,16 7.94658203,15.8523848 7.94658203,15.6701662 L7.94658203,0.329833835 C7.94658203,0.147615202 7.79916992,0 7.61748047,0 Z" id="Path"></path>
                        <path d="M24.0361328,5.76384504 C24.5719727,5.74558892 25,5.31209162 25,4.77468615 L25,0.989452561 C25,0.443041382 24.5580566,0 24.0128906,0 L10.249707,0 C10.0680176,0 9.9206543,0.147615202 9.9206543,0.329833835 L9.9206543,15.6701662 C9.9206543,15.8523359 10.0680176,16 10.249707,16 L24.0128906,16 C24.5580078,16 25,15.5570076 25,15.0105474 L25,11.2253139 C25,10.6879084 24.5719238,10.2544111 24.0361328,10.236155 C21.1838379,10.1388542 21.1770508,5.8613905 24.0361328,5.76384504 Z M19.3600586,10.8058146 L13.2058594,10.8058146 C12.6607422,10.8058146 12.21875,10.3628221 12.21875,9.81636199 C12.21875,9.26990187 12.6606934,8.82690943 13.2058594,8.82690943 L19.3600098,8.82690943 C19.905127,8.82690943 20.3471191,9.26990187 20.3471191,9.81636199 C20.3471191,10.3628221 19.9051758,10.8058146 19.3600586,10.8058146 Z M19.3600586,7.17304163 L13.2058594,7.17304163 C12.6607422,7.17304163 12.21875,6.73004919 12.21875,6.18358907 C12.21875,5.63712894 12.6606934,5.1941365 13.2058594,5.1941365 L19.3600098,5.1941365 C19.905127,5.1941365 20.3471191,5.63712894 20.3471191,6.18358907 C20.3471191,6.73004919 19.9051758,7.17304163 19.3600586,7.17304163 Z" id="Shape"></path>
                    </g>
                </g>
            </g>
        </g>
    </g>
</svg>