<?xml version="1.0" encoding="UTF-8"?>
<svg width="24px" height="24px" viewBox="0 0 24 24" version="1.1" xmlns="http://www.w3.org/2000/svg" xmlns:xlink="http://www.w3.org/1999/xlink">
    <title>TK</title>
    <g id="1.-Design" stroke="none" stroke-width="1" fill-rule="evenodd">
        <g id="HP-2" transform="translate(-1556.000000, -24.000000)">
            <g id="social" transform="translate(1460.000000, 23.999620)">
                <g id="TK" transform="translate(96.000000, 0.000380)">
                    <circle id="Oval" cx="12" cy="12" r="12"></circle>
                    <g id="tiktok" transform="translate(6.400000, 5.600000)" fill="#FFFFFF" fill-rule="nonzero">
                        <path d="M4.0192299,6.87373043 C3.64834287,6.87373043 3.28578239,6.98368452 2.97740533,7.18976843 C2.66902188,7.39578834 2.42867172,7.68865789 2.28673623,8.0313204 C2.14480714,8.3739829 2.10766723,8.75107805 2.180027,9.11479696 C2.25238038,9.47857986 2.43098217,9.8127302 2.69323994,10.0749432 C2.95549132,10.3372202 3.28962886,10.5157835 3.65338616,10.5881689 C4.01714986,10.6605543 4.39420662,10.6233696 4.73686912,10.4814789 C5.07953162,10.3395242 5.37240118,10.0991996 5.57842109,9.79077778 C5.784505,9.48241993 5.89445909,9.11985305 5.89445909,8.74896601 L5.89445909,0 L8.12810147,0 L8.12810147,0.0512009716 C8.10621305,0.225450678 8.10621305,0.401761224 8.12810147,0.57601093 C8.208679,0.981977033 8.37105008,1.36727074 8.60542253,1.70839082 C8.83979497,2.04950449 9.14124069,2.33928279 9.49132734,2.56004858 C9.97888859,2.88903402 10.5544515,3.06304052 11.1425587,3.05925805 L11.1425587,5.23529934 C10.0610021,5.24553954 9.0045981,4.90909795 8.12810147,4.27528112 L8.12810147,8.75536614 C8.1242614,9.55640534 7.88380883,10.3385002 7.43688835,11.0032808 C6.98996787,11.6680614 6.35654785,12.1859592 5.61624581,12.491949 C4.87587976,12.7978748 4.06163711,12.8781964 3.2757918,12.7228014 C2.48994008,12.5674065 1.76753918,12.1832712 1.19933639,11.6186525 C0.631133613,11.0539698 0.242473438,10.3339561 0.0821887963,9.5491092 C-0.0780958451,8.7642623 -0.00286241756,7.94952684 0.2984425,7.20730476 C0.599747417,6.46501868 1.11368357,5.8283986 1.77568013,5.37738204 C2.43768309,4.92628868 3.2182163,4.68092722 4.0192299,4.67208865 L4.0192299,6.87373043 Z" id="Path"></path>
                    </g>
                </g>
            </g>
        </g>
    </g>
</svg>