<?xml version="1.0" encoding="UTF-8"?>
<svg width="80px" height="80px" viewBox="0 0 80 80" version="1.1" xmlns="http://www.w3.org/2000/svg" xmlns:xlink="http://www.w3.org/1999/xlink">
    <title>youtube play</title>
    <g id="1.-Design" stroke="none" stroke-width="1" fill="none" fill-rule="evenodd">
        <g id="HP-2" transform="translate(-920.000000, -2398.000000)">
            <g id="TV" transform="translate(308.000000, 2249.000000)">
                <g id="video" transform="translate(448.000000, 74.000000)">
                    <g id="youtube-play" transform="translate(164.000000, 75.000000)">
                        <g id="1479877199-youtube">
                            <rect id="Rectangle" x="0" y="0" width="80" height="80"></rect>
                            <path d="M79.2,23.89 C79.2,23.89 78.4175,18.338125 76.02,15.89375 C72.9775,12.68375 69.5675,12.66875 68.005,12.4825 C56.81,11.666875 40.0175,11.666875 40.0175,11.666875 L39.9825,11.666875 C39.9825,11.666875 23.19,11.666875 11.995,12.4825 C10.43,12.66875 7.0225,12.68375 3.9775,15.89375 C1.58,18.33875 0.8,23.89 0.8,23.89 C0.8,23.89 0,30.41125 0,36.929375 L0,43.0425 C0,49.563125 0.8,56.081875 0.8,56.081875 C0.8,56.081875 1.58,61.63375 3.9775,64.078125 C7.0225,67.288125 11.02,67.1875 12.8,67.5225 C19.2,68.141875 40,68.333125 40,68.333125 C40,68.333125 56.81,68.308125 68.005,67.4925 C69.5675,67.30375 72.9775,67.28875 76.02,64.07875 C78.4175,61.63375 79.2,56.0825 79.2,56.0825 C79.2,56.0825 80,49.56375 80,43.0425 L80,36.929375 C80,30.41125 79.2,23.89 79.2,23.89 Z" id="Youtube" fill="#EB0000"></path>
                        </g>
                        <polygon id="Youtube-path" fill="#FFFFFF" points="31.74 50.45 31.7375 27.813125 53.3525 39.170625"></polygon>
                    </g>
                </g>
            </g>
        </g>
    </g>
</svg>